<?xml version="1.0" standalone="no"?>
<!DOCTYPE svg PUBLIC "-//W3C//DTD SVG 20010904//EN"
 "http://www.w3.org/TR/2001/REC-SVG-20010904/DTD/svg10.dtd">
<svg version="1.0" xmlns="http://www.w3.org/2000/svg"
 width="900.000000pt" height="900.000000pt" viewBox="0 0 900.000000 900.000000"
 preserveAspectRatio="xMidYMid meet">
<metadata>
Created by potrace 1.11, written by Peter Selinger 2001-2013
</metadata>
<g transform="translate(0.000000,900.000000) scale(0.100000,-0.100000)"
fill="#000000" stroke="none">
<path d="M3587 6419 c-27 -16 -68 -21 -81 -10 -18 15 -58 3 -111 -33 -40 -28
-54 -47 -55 -72 0 -11 -6 -29 -14 -40 -13 -17 -12 -22 8 -49 13 -16 26 -41 29
-55 3 -14 15 -35 27 -47 50 -54 69 -93 60 -123 -4 -15 -6 -31 -3 -33 2 -3 6
-16 8 -29 6 -43 36 -142 47 -155 6 -7 7 -13 4 -13 -4 0 0 -7 8 -16 17 -17 21
-36 9 -48 -5 -4 -9 -12 -9 -17 -1 -5 -2 -15 -3 -21 -1 -7 -10 7 -20 32 -24 61
-95 135 -154 160 -157 66 -309 -39 -371 -255 -10 -33 -24 -72 -32 -87 -9 -16
-13 -28 -9 -28 3 0 -1 -15 -9 -34 -8 -19 -12 -37 -9 -39 2 -3 7 -28 9 -57 4
-38 2 -50 -7 -45 -6 4 -14 3 -18 -2 -9 -15 -105 -62 -127 -63 -58 -1 -111 -15
-130 -33 -12 -11 -23 -18 -25 -16 -2 2 -19 -7 -37 -19 -18 -13 -45 -25 -59
-27 -15 -1 -32 -10 -38 -18 -7 -11 -15 -13 -21 -7 -18 18 -199 30 -280 18 -36
-5 -103 -42 -105 -58 -2 -13 -6 -28 -9 -35 -1 -3 -3 -8 -5 -12 -14 -51 -25
-61 -97 -82 -40 -12 -85 -27 -100 -32 -31 -13 -56 -62 -40 -82 5 -6 12 -23 14
-37 2 -17 10 -26 26 -28 18 -3 21 -8 16 -24 -3 -11 -7 -27 -8 -35 -1 -8 -15
-25 -30 -38 -29 -25 -38 -49 -39 -107 -2 -41 -2 -41 -65 -29 -38 8 -51 5 -103
-21 -59 -29 -179 -133 -179 -154 0 -25 -43 -63 -87 -79 -27 -9 -99 -30 -160
-46 -127 -32 -163 -48 -191 -83 -19 -24 -117 -76 -145 -76 -7 0 -17 -3 -21 -7
-4 -5 -12 -8 -16 -8 -5 0 -15 -8 -23 -18 -8 -12 -26 -19 -49 -19 -34 0 -36 -2
-72 -78 -36 -78 -77 -130 -102 -130 -16 0 -32 -27 -36 -63 -2 -14 -11 -34 -19
-44 -24 -27 -51 -92 -44 -103 3 -6 -3 -24 -15 -40 -13 -19 -19 -37 -15 -50 7
-21 8 -21 -82 -22 -32 0 -51 7 -80 29 -21 16 -45 32 -54 35 -21 8 -79 -18 -79
-35 0 -8 -8 -25 -18 -38 -10 -13 -17 -31 -17 -39 1 -8 3 -21 3 -28 1 -7 6 -10
12 -7 6 3 7 -1 4 -9 -3 -9 -9 -16 -14 -16 -4 0 -14 -18 -22 -39 -18 -45 -8
-78 30 -97 12 -6 19 -14 16 -17 -4 -4 -1 -13 5 -21 9 -10 9 -20 2 -34 -8 -16
-5 -20 27 -32 44 -16 104 -19 114 -5 5 6 8 5 8 -2 0 -7 7 -13 15 -13 8 0 15
-5 15 -12 0 -6 3 -9 6 -5 3 3 18 1 33 -5 14 -5 34 -11 45 -14 24 -4 31 -12 22
-21 -4 -4 -12 -1 -17 7 -9 13 -10 13 -6 0 2 -8 0 -23 -5 -32 -5 -12 -5 -18 2
-18 5 0 10 7 10 15 0 8 5 15 11 15 5 0 8 -4 5 -9 -3 -5 2 -15 12 -22 15 -13
16 -12 3 4 -15 20 -9 22 21 6 13 -7 18 -7 14 -1 -3 6 -2 13 4 17 5 3 10 0 10
-8 0 -8 7 -17 15 -21 8 -3 14 0 12 6 -4 17 32 18 42 0 9 -15 10 -14 8 3 -1 16
-9 21 -34 23 -52 3 -62 5 -58 12 2 4 -2 7 -10 7 -11 0 -12 -4 -4 -14 7 -8 8
-13 1 -13 -8 0 -22 22 -22 35 0 10 63 -3 70 -14 6 -11 9 -11 13 0 3 8 6 9 6 3
1 -5 15 -9 32 -8 21 1 29 -2 26 -10 -10 -25 8 -36 22 -15 7 12 8 18 2 14 -6
-3 -11 -2 -11 3 0 6 7 13 16 16 8 3 13 2 10 -2 -3 -5 27 -8 65 -7 55 2 69 -1
65 -11 -7 -17 10 -28 20 -13 5 8 3 9 -6 4 -9 -5 -11 -4 -6 4 6 9 11 9 24 -1 9
-8 13 -8 9 -2 -11 19 19 24 44 7 12 -9 19 -11 15 -5 -4 7 -1 12 9 12 9 0 14
-4 11 -8 -3 -5 8 -6 25 -4 16 2 36 -1 44 -8 13 -11 14 -10 8 6 -6 17 -5 17 10
5 9 -7 17 -10 17 -5 0 5 5 2 10 -6 6 -10 10 -11 10 -3 0 9 13 12 39 10 24 -2
38 1 34 7 -4 5 0 7 9 3 9 -3 20 -1 26 5 8 8 14 5 21 -13 7 -17 10 -19 10 -6 1
20 5 21 33 6 12 -7 18 -7 14 -1 -3 6 0 13 6 15 7 3 3 6 -10 6 -37 1 -81 59
-47 62 6 0 16 6 24 12 12 10 13 9 7 -2 -6 -9 -5 -12 4 -9 7 2 14 12 16 22 1
10 6 21 10 24 4 4 4 -1 1 -10 -4 -10 -2 -18 3 -18 6 0 10 5 10 11 0 8 4 8 15
-1 8 -6 19 -9 25 -5 6 4 18 1 27 -7 14 -11 15 -10 9 12 -6 21 -5 22 4 7 9 -14
15 -16 26 -6 7 6 11 16 7 22 -4 6 -1 7 6 2 8 -4 9 -11 3 -17 -13 -13 1 -83 21
-102 8 -9 22 -16 29 -16 8 0 20 -6 27 -12 11 -10 13 -10 7 0 -4 6 -4 12 1 12
11 -1 73 -93 73 -109 0 -7 -7 -10 -18 -7 -9 3 -59 8 -111 11 -91 5 -127 17
-115 36 3 5 0 9 -5 9 -6 0 -11 -9 -11 -20 0 -20 -14 -27 -24 -11 -3 4 -41 7
-85 6 -47 -1 -89 4 -103 11 -18 10 -28 9 -50 -2 -31 -16 -34 -20 -15 -21 14
-1 90 -10 155 -18 24 -3 81 -8 125 -11 45 -3 100 -6 122 -8 22 -2 65 -5 95 -7
57 -3 78 -15 85 -48 7 -38 25 -60 43 -55 14 5 15 4 2 -5 -11 -8 -12 -11 -2
-11 7 0 11 -4 7 -10 -3 -5 -12 -7 -20 -4 -8 4 -13 9 -11 13 2 3 -1 14 -8 22
-11 15 -14 15 -36 -3 -14 -11 -18 -19 -10 -17 23 5 82 -30 74 -44 -4 -7 -3 -8
2 -4 5 5 9 14 9 20 0 5 6 12 14 15 8 3 11 0 7 -7 -5 -7 -1 -9 11 -5 14 4 12 1
-6 -15 -13 -12 -19 -21 -13 -21 6 0 18 7 26 16 9 8 16 12 16 7 0 -4 5 -1 10 7
7 12 10 12 10 1 0 -7 6 -11 14 -8 7 3 24 -2 37 -10 12 -9 19 -11 15 -5 -4 7
-1 12 9 12 13 0 14 -4 5 -22 -10 -21 -10 -22 4 -5 8 11 12 26 8 35 -5 14 -3
15 9 5 12 -10 18 -10 29 0 9 9 11 9 6 0 -4 -8 6 -12 36 -12 63 -1 78 -3 78
-13 0 -5 -10 -7 -22 -4 -13 3 -17 3 -10 0 6 -3 9 -10 6 -16 -4 -6 2 -6 14 1
12 6 23 15 26 19 8 13 77 13 94 0 13 -11 15 -10 9 4 -5 13 -1 16 20 12 20 -4
24 -2 19 11 -3 9 -2 13 4 10 6 -3 10 0 10 7 0 10 2 10 9 -1 7 -11 9 -11 14 0
4 11 6 11 6 1 1 -7 5 -11 11 -7 5 3 8 11 6 18 -1 7 -1 9 1 5 3 -5 9 -8 14 -8
6 0 7 5 4 10 -4 6 -1 9 6 8 7 -2 13 2 14 9 0 6 4 15 9 20 5 5 6 3 2 -4 -4 -7
-2 -13 3 -13 6 0 11 9 11 20 0 11 6 20 13 20 8 0 7 4 -3 10 -12 8 -12 10 -1
10 8 0 12 3 8 6 -7 8 92 100 104 97 5 -2 9 2 9 8 0 5 4 7 10 4 6 -4 7 1 3 11
-4 12 -3 15 5 10 7 -4 12 -2 12 3 0 6 -7 11 -17 11 -9 0 -13 3 -10 7 4 3 0 17
-8 29 -10 15 -11 25 -4 29 7 5 4 14 -7 26 -17 18 -17 21 -1 36 11 11 17 13 17
5 0 -7 -4 -12 -10 -12 -5 0 -10 -4 -10 -8 0 -13 46 -8 64 7 14 12 16 12 11 -1
-8 -20 72 -19 86 2 9 13 10 13 6 -1 -6 -19 10 -39 32 -39 11 0 10 4 -5 14 -10
8 -16 18 -11 22 4 4 7 2 7 -4 0 -7 6 -12 14 -12 19 0 16 -83 -3 -91 -11 -4 -9
-7 7 -11 12 -3 21 -3 20 1 -2 16 3 31 10 30 4 -1 9 0 12 1 3 1 13 3 23 5 24 5
22 -11 -3 -18 -11 -3 -20 -11 -20 -19 0 -10 2 -10 9 1 5 8 16 11 26 7 10 -3
24 -1 31 5 10 8 14 8 14 0 0 -6 5 -11 12 -11 6 0 3 9 -7 20 -10 11 -14 20 -8
20 5 0 18 -8 27 -19 17 -19 62 -25 72 -10 3 5 10 9 17 9 8 0 8 -3 -1 -12 -7
-7 -12 -17 -12 -23 0 -5 5 -3 10 6 6 10 18 15 34 12 13 -3 27 1 31 7 6 9 13 6
26 -11 10 -13 19 -19 19 -12 0 6 -4 15 -10 18 -5 3 -10 11 -10 17 0 6 7 5 17
-3 9 -8 14 -9 10 -3 -4 7 0 15 9 18 24 9 29 7 16 -6 -16 -16 -15 -25 4 -32 8
-3 13 -2 10 3 -3 5 1 12 10 15 24 9 29 7 16 -6 -7 -7 -12 -17 -12 -23 0 -5 7
-1 15 9 8 11 17 17 20 14 3 -3 -5 -18 -17 -34 -12 -16 -15 -23 -7 -17 9 7 18
11 21 8 2 -3 5 2 6 10 1 8 3 22 4 30 1 9 6 14 12 12 6 -3 10 -11 8 -18 -1 -9
3 -8 11 3 8 10 17 15 20 11 4 -3 2 -12 -4 -20 -9 -9 -8 -13 0 -13 6 0 11 4 11
8 0 5 14 8 30 8 17 0 30 -4 30 -9 0 -5 7 -4 15 3 11 9 18 10 29 1 11 -9 15 -8
21 6 6 16 8 16 18 3 17 -22 37 -23 57 -5 11 10 21 12 24 7 3 -6 -1 -13 -10
-16 -8 -3 -13 -10 -10 -15 4 -5 1 -12 -4 -14 -6 -3 -5 -4 2 -3 7 2 12 8 11 13
-1 5 16 20 38 33 21 14 39 29 39 34 0 4 -8 2 -17 -5 -14 -12 -16 -12 -8 0 5
10 4 12 -3 7 -22 -14 -53 -16 -45 -3 4 7 -2 5 -12 -3 -17 -13 -18 -13 -10 0 4
8 5 12 0 8 -4 -4 -15 -2 -23 5 -13 10 -14 9 -7 -2 5 -10 4 -12 -3 -7 -17 10
-15 29 3 23 8 -4 17 -2 20 3 4 6 -2 10 -12 11 -12 0 -13 2 -5 6 7 3 24 -5 38
-18 13 -12 24 -18 24 -13 0 14 -13 30 -35 41 -17 10 -17 11 7 10 15 -1 26 -4
26 -7 0 -3 3 -15 7 -27 8 -24 20 -29 30 -13 10 17 21 11 33 -15 15 -33 15 -33
-5 -31 -13 1 -18 -7 -18 -31 0 -17 4 -29 8 -26 5 3 6 16 3 29 -4 14 -2 24 4
24 5 0 10 -5 10 -11 0 -17 17 -1 23 21 3 13 1 18 -5 13 -6 -3 -8 -1 -4 5 3 6
2 13 -4 17 -6 4 -8 10 -5 15 8 13 -32 19 -46 6 -11 -9 -11 -8 0 6 14 19 35 15
69 -15 12 -11 22 -17 22 -12 0 5 -10 20 -22 34 -17 18 -18 21 -4 11 11 -8 29
-14 40 -13 14 1 16 0 4 -3 -17 -5 -14 -34 4 -34 5 0 6 5 3 10 -3 5 -1 10 4 10
27 0 -8 -39 -39 -44 -3 -1 -4 -5 -2 -10 1 -4 -2 -14 -8 -21 -8 -10 -8 -15 1
-21 7 -4 9 -3 5 4 -3 6 3 16 15 23 17 9 23 8 30 -2 4 -7 5 -17 3 -21 -3 -4 0
-8 5 -8 6 0 11 4 11 9 0 5 6 11 13 14 6 2 4 3 -6 1 -10 -1 -16 3 -14 9 4 14
47 18 47 5 0 -5 9 -7 19 -3 13 4 24 -1 35 -16 9 -13 19 -20 22 -16 4 4 -4 16
-17 28 -23 20 -18 21 26 3 10 -4 15 0 15 11 0 9 4 14 10 10 5 -3 7 -12 3 -20
-6 -17 12 -21 22 -5 3 6 11 10 17 10 6 0 6 -6 -2 -15 -11 -13 -11 -18 0 -28
10 -9 11 -9 6 1 -12 21 13 43 35 31 10 -5 19 -6 20 -2 1 4 5 -3 10 -17 l8 -25
-1 25 c-1 43 2 50 15 47 6 -1 19 -12 27 -24 17 -23 37 -19 37 8 0 17 -27 22
-27 5 0 -6 -5 -3 -11 7 -6 9 -15 14 -21 11 -6 -4 -8 -3 -5 3 4 6 -4 11 -18 11
-21 0 -23 -3 -14 -15 9 -11 9 -17 -1 -26 -10 -10 -12 -9 -7 5 3 10 1 20 -5 24
-7 5 -8 2 -3 -6 6 -9 4 -11 -5 -5 -9 6 -11 4 -5 -5 6 -10 4 -11 -6 -4 -20 12
-39 14 -39 3 0 -6 -5 -7 -11 -3 -8 5 -8 9 1 14 9 5 9 9 1 14 -6 4 -11 2 -11
-4 0 -6 -4 -9 -9 -5 -6 3 -14 -3 -20 -12 -6 -11 -11 -13 -11 -5 0 8 -5 10 -12
6 -10 -5 -10 -4 -1 6 15 16 6 40 -14 33 -12 -5 -12 -7 -1 -14 11 -7 10 -11 -2
-18 -8 -5 -18 -7 -22 -5 -4 3 -8 0 -8 -7 0 -8 -4 -8 -15 1 -9 7 -13 15 -10 18
3 3 0 11 -7 19 -8 11 -8 17 2 26 10 10 12 9 7 -5 -4 -11 3 -22 19 -33 19 -12
25 -13 23 -3 -3 23 1 38 9 37 4 -1 9 0 12 1 3 1 16 3 29 4 21 3 22 1 7 -9 -21
-16 -20 -20 4 -22 11 -1 19 1 19 5 -1 4 -1 14 0 22 1 12 4 12 12 -2 5 -10 15
-18 21 -18 7 0 6 6 -2 15 -7 9 -10 18 -6 22 3 3 6 1 6 -7 0 -10 4 -10 18 1 15
12 16 12 5 -2 -10 -12 -10 -18 -1 -27 17 -17 33 -15 19 2 -13 16 -6 23 24 22
11 -1 19 -6 18 -12 -3 -15 66 -12 72 3 6 17 35 5 35 -14 0 -11 5 -13 18 -8 45
19 68 13 63 -17 0 -4 7 -7 17 -5 9 1 18 -2 20 -8 1 -5 -7 -11 -18 -11 -11 -1
-20 4 -20 10 0 6 -5 4 -10 -4 -9 -13 -10 -13 -10 0 -1 12 -3 11 -11 -2 -5 -10
-15 -18 -21 -18 -7 0 -7 4 1 13 8 10 7 14 -4 14 -8 0 -11 -5 -8 -10 3 -6 1 -7
-4 -4 -6 4 -10 -1 -9 -11 0 -9 -5 -16 -11 -15 -7 2 -13 -1 -13 -6 0 -6 9 -9
19 -8 11 0 18 4 15 8 -2 4 6 9 17 12 15 4 19 2 15 -9 -4 -10 -2 -12 6 -8 8 5
9 1 5 -12 -7 -18 -6 -18 6 -2 8 10 18 14 22 10 5 -4 5 -1 1 6 -4 7 -12 10 -17
7 -5 -4 -9 -2 -9 3 0 19 14 21 33 5 11 -10 17 -12 13 -5 -4 6 -3 12 3 12 5 0
14 -8 20 -17 5 -10 12 -15 16 -12 3 4 -1 13 -9 22 -17 17 -11 28 10 20 8 -3
11 -10 8 -15 -4 -6 4 -3 18 6 22 14 26 14 47 0 13 -9 26 -13 30 -8 9 13 43 14
38 1 -1 -5 -11 -11 -21 -13 -10 -1 -21 -5 -24 -8 -9 -9 31 -2 47 8 11 7 13 4
9 -12 -4 -13 -2 -20 4 -16 5 3 8 15 5 25 -6 23 6 25 27 3 9 -8 16 -12 16 -7 0
4 5 1 11 -7 9 -12 10 -12 5 4 -5 14 -2 17 9 12 9 -3 13 -2 10 3 -3 5 -1 12 5
16 16 10 12 28 -6 21 -8 -3 -13 -2 -10 3 3 5 -1 11 -9 15 -18 6 -30 -10 -13
-18 7 -2 4 -4 -7 -3 -27 3 -71 35 -61 44 4 4 11 1 17 -7 8 -13 12 -12 24 4 8
11 15 15 15 9 0 -7 -4 -15 -10 -18 -5 -3 -10 -12 -10 -18 1 -7 9 -2 19 11 13
15 21 18 24 10 3 -9 11 -7 28 7 l24 20 -19 -22 c-11 -13 -15 -23 -10 -23 14 0
30 14 37 30 4 13 6 12 6 -1 1 -9 9 -23 18 -30 15 -12 16 -12 10 3 -3 10 -1 20
5 24 6 4 8 3 5 -3 -4 -6 0 -14 9 -17 24 -9 27 -7 14 9 -9 11 -10 19 -3 26 7 7
15 4 24 -8 13 -17 13 -17 -5 -3 -17 13 -19 13 -14 0 3 -8 14 -15 26 -14 13 0
18 -4 14 -14 -4 -11 1 -11 22 3 24 16 26 16 20 1 -4 -12 -2 -15 9 -10 10 3 20
-3 27 -17 11 -19 10 -21 -5 -16 -9 4 -20 7 -23 7 -4 0 -1 4 6 9 8 5 -1 8 -26
7 -22 0 -38 -5 -35 -9 3 -5 -4 -4 -14 2 -11 6 -23 7 -27 4 -3 -3 -6 -1 -6 6 0
7 -5 9 -11 5 -8 -4 -7 -9 2 -15 10 -6 10 -9 2 -9 -6 0 -15 5 -18 10 -5 8 -11
7 -21 -1 -10 -8 -14 -8 -14 0 0 6 5 11 11 11 5 0 7 5 3 11 -4 8 -12 2 -21 -15
-17 -32 -11 -45 12 -26 20 16 19 6 -1 -25 -9 -14 -13 -25 -10 -25 3 0 14 12
24 28 20 32 56 41 47 11 -4 -11 -2 -19 5 -19 6 0 8 5 5 10 -3 6 0 10 9 10 8 0
16 -3 19 -7 2 -5 2 -2 0 5 -1 8 3 12 9 9 7 -2 12 -13 11 -23 -1 -10 0 -13 3
-6 3 6 11 9 16 6 7 -5 8 -2 3 6 -6 10 -4 12 9 7 11 -5 15 -3 10 4 -4 7 -1 10
7 7 8 -3 13 -14 11 -24 -2 -15 1 -14 11 5 14 23 15 23 26 5 11 -17 11 -17 6 4
-7 24 -7 24 22 7 23 -14 25 -14 9 -1 -17 14 -17 16 -3 16 9 0 22 -9 31 -21 12
-17 17 -19 33 -9 14 9 15 10 1 6 -9 -2 -22 2 -29 10 -10 13 -8 14 15 10 14 -3
24 -1 21 4 -3 4 1 11 7 13 7 3 0 4 -17 4 -16 -1 -33 -6 -37 -12 -5 -6 -8 -6
-8 1 0 6 -10 10 -22 9 -18 -2 -23 3 -24 21 -1 13 2 24 8 24 5 0 6 -5 2 -11 -5
-8 1 -10 19 -7 19 4 24 1 20 -10 -5 -11 -1 -11 21 3 22 15 25 15 20 2 -4 -10
0 -15 13 -14 15 2 18 -5 16 -38 -1 -35 0 -37 9 -17 13 26 28 29 28 5 1 -13 5
-10 16 9 9 17 20 25 29 22 8 -4 15 -2 15 4 0 5 -13 8 -29 7 -21 -2 -28 1 -24
11 2 7 -7 20 -22 30 -23 15 -24 18 -10 34 8 9 12 20 8 25 -5 4 -2 5 5 0 12 -6
11 -10 -1 -23 -14 -14 -13 -17 8 -34 24 -18 55 -15 55 6 0 6 5 4 10 -4 9 -13
11 -13 21 0 9 12 10 12 5 -4 -5 -14 -2 -17 9 -12 11 4 14 2 9 -6 -5 -8 -2 -9
10 -5 10 4 21 7 24 7 4 0 0 5 -8 11 -13 9 -13 10 0 6 8 -2 14 -11 12 -21 -5
-28 17 -18 25 12 l7 27 6 -25 c5 -20 12 -25 33 -23 18 1 27 -3 27 -12 0 -8 4
-15 9 -15 6 0 9 9 8 20 -1 11 -5 20 -9 20 -4 0 -8 5 -8 11 0 5 5 7 12 3 7 -5
9 -2 6 8 -4 9 0 15 8 15 17 0 18 -9 2 -25 -9 -9 -9 -12 0 -12 6 0 16 8 21 18
6 9 10 13 10 7 0 -5 -6 -19 -14 -29 -8 -10 -12 -22 -10 -26 3 -5 -2 -10 -10
-14 -18 -6 -47 3 -40 13 5 10 -42 8 -51 -2 -4 -3 -16 -2 -28 4 -19 9 -19 9 -4
-3 15 -13 15 -15 0 -26 -15 -10 -15 -11 2 -5 13 4 17 3 12 -5 -4 -7 -2 -12 4
-12 7 0 10 7 6 15 -8 23 11 18 28 -7 9 -12 16 -17 16 -10 0 7 5 10 10 7 6 -3
10 -1 10 5 0 7 -6 10 -14 7 -14 -6 -36 10 -36 26 0 5 7 4 15 -3 8 -7 15 -10
15 -6 0 4 14 -1 31 -10 17 -8 28 -11 25 -6 -3 6 1 13 10 16 11 4 15 2 11 -8
-4 -10 -1 -13 10 -9 8 3 19 0 23 -7 7 -11 12 -10 26 4 16 16 18 16 26 2 5 -9
6 -21 2 -28 -4 -7 -3 -8 5 -4 6 4 9 15 6 25 -3 12 1 17 15 18 11 1 18 -2 15
-7 -3 -5 -1 -11 5 -15 6 -4 8 -11 5 -16 -4 -5 -1 -9 4 -9 14 0 14 13 1 26 -6
6 -2 14 11 22 19 12 20 11 14 -9 -7 -22 -7 -22 9 -6 22 22 37 22 30 0 -5 -17
-5 -17 6 -1 11 18 45 13 33 -5 -4 -6 -1 -7 7 -2 11 7 10 10 -1 19 -16 13 -23
36 -11 36 5 0 15 -11 22 -25 12 -23 15 -24 30 -10 24 22 36 18 16 -4 -14 -15
-15 -21 -4 -27 7 -4 10 -3 5 1 -8 9 20 45 36 45 6 0 2 -9 -8 -20 -10 -11 -13
-20 -8 -20 6 0 13 7 17 15 3 8 10 15 16 15 8 0 7 -7 0 -22 -10 -21 -10 -21 3
-5 8 9 19 17 25 17 6 0 10 9 9 19 -1 16 -5 18 -20 9 -14 -7 -22 -6 -31 3 -8 9
-7 11 6 6 11 -4 15 -2 12 6 -2 7 -13 13 -24 13 -15 0 -19 -5 -15 -21 3 -11 2
-14 -1 -7 -3 6 -11 9 -16 6 -7 -5 -8 -2 -3 6 6 9 4 11 -6 6 -8 -4 -6 -1 3 7
10 8 15 17 11 20 -3 4 -1 7 5 7 7 0 12 -4 12 -10 0 -5 5 -10 11 -10 5 0 7 6 3
13 -6 9 -4 9 8 -1 8 -7 23 -10 32 -6 22 9 20 23 -3 17 -22 -6 -37 12 -20 23 8
5 9 3 4 -5 -5 -9 1 -11 23 -8 25 4 29 2 25 -11 -4 -10 -2 -13 5 -8 7 4 12 2
12 -6 0 -9 3 -9 10 2 9 13 11 13 20 0 9 -15 11 -13 14 13 0 6 11 13 23 13 12
1 20 -2 17 -7 -2 -4 -11 -6 -19 -2 -11 4 -13 1 -9 -11 4 -10 1 -16 -7 -16 -16
0 -3 -13 17 -16 10 -2 14 3 10 11 -3 10 0 12 11 8 10 -4 14 -2 10 4 -4 6 2 22
14 34 l20 24 -16 -27 c-11 -17 -13 -28 -6 -33 6 -3 11 1 11 9 0 8 5 18 12 22
8 5 9 2 5 -9 -8 -20 2 -49 13 -42 5 3 6 15 4 28 -4 20 -3 20 4 2 8 -18 9 -18
19 -1 5 9 18 19 29 20 11 2 18 10 16 18 -1 9 5 19 14 22 14 5 15 4 4 -9 -7 -8
-9 -15 -5 -15 4 0 2 -7 -5 -15 -7 -9 -10 -18 -6 -22 3 -4 13 2 21 13 8 10 15
14 15 9 0 -6 -5 -16 -11 -22 -9 -9 -7 -12 9 -10 12 0 24 7 26 14 7 18 31 16
51 -3 9 -9 18 -14 21 -11 9 9 -22 48 -31 39 -5 -4 -5 -1 0 7 7 11 11 11 22 -5
8 -11 26 -19 41 -19 19 0 27 -5 26 -16 -2 -21 26 -15 55 12 22 20 43 27 23 7
-18 -18 -14 -32 5 -17 13 11 17 11 20 1 3 -6 9 -10 13 -7 5 3 6 13 3 23 -4 12
-1 11 14 -5 22 -24 35 -21 26 5 -4 13 -3 14 5 3 7 -10 14 -11 31 -2 17 10 20
9 14 -5 -3 -9 0 -20 8 -25 10 -6 11 -9 1 -9 -7 0 -15 6 -18 14 -3 8 -12 12
-21 9 -12 -5 -11 -9 8 -19 13 -7 31 -11 41 -8 9 3 20 -1 24 -8 4 -7 4 -10 -1
-6 -4 4 -14 3 -22 -3 -10 -9 -18 -7 -33 6 -17 15 -23 16 -33 6 -9 -11 -9 -14
1 -18 6 -3 10 -10 7 -16 -3 -7 0 -5 6 5 12 15 14 15 38 0 14 -10 22 -12 18 -5
-4 6 -3 14 3 18 5 3 10 1 10 -5 0 -6 4 -9 9 -6 5 4 12 0 14 -6 3 -7 4 2 2 20
-3 22 0 32 8 29 7 -2 11 -20 10 -43 l-3 -39 15 29 c8 15 13 32 10 36 -3 4 2
11 11 14 23 9 26 8 17 -6 -4 -7 -9 -22 -10 -33 -2 -16 -1 -17 6 -5 5 8 8 17 5
21 -2 4 4 13 13 20 14 12 15 11 9 -9 -8 -25 11 -31 32 -10 7 7 12 8 12 2 0 -5
-5 -15 -12 -22 -9 -9 -9 -12 0 -12 7 0 12 5 12 11 0 5 5 7 10 4 12 -7 14 8 3
19 -5 4 -8 13 -8 19 0 5 -6 11 -13 13 -7 1 -8 0 -2 -3 13 -6 -6 -33 -22 -33
-6 0 -5 7 2 15 15 19 19 18 -62 20 -45 1 -65 -2 -61 -9 3 -6 0 -5 -8 3 -11 10
-11 15 -1 18 6 3 9 10 5 16 -5 9 -3 9 8 1 8 -6 24 -11 37 -12 19 -1 21 2 12
13 -8 10 -8 15 1 21 7 4 9 3 6 -3 -4 -6 0 -16 8 -23 12 -10 18 -10 30 0 8 7
12 17 8 23 -3 6 -1 7 6 3 9 -6 9 -11 1 -21 -9 -11 -8 -14 7 -13 10 0 23 -1 28
-2 13 -5 65 21 65 32 0 4 5 8 12 8 9 0 9 -3 0 -12 -16 -16 -15 -33 1 -19 10 8
17 7 25 -1 7 -7 12 -8 12 -2 0 5 -5 15 -12 22 -9 9 -9 12 0 12 7 0 12 -5 12
-11 0 -5 4 -7 10 -4 6 4 7 -1 3 -12 -6 -16 -5 -16 9 -5 13 10 22 11 38 2 16
-9 21 -8 26 5 6 14 8 14 19 -2 11 -15 13 -15 25 7 9 17 14 20 21 9 4 -7 4 -18
-1 -25 -6 -6 -7 -14 -3 -17 3 -4 1 -7 -5 -7 -7 0 -12 6 -12 13 0 8 -4 7 -10
-3 -9 -13 -10 -13 -10 0 0 13 -1 13 -10 0 -8 -13 -10 -13 -10 -1 0 11 -4 9
-14 -5 -11 -14 -17 -16 -27 -7 -6 6 -18 9 -25 6 -8 -3 -14 1 -14 8 0 7 -3 9
-7 6 -3 -4 -12 -2 -19 4 -8 7 -14 7 -19 -1 -3 -5 -1 -10 5 -10 8 0 8 -6 0 -20
-11 -20 -30 -19 -30 1 0 6 5 7 10 4 6 -3 10 -2 10 4 0 20 -19 21 -25 0 -7 -20
-7 -20 -22 -2 -8 10 -7 4 4 -15 10 -18 19 -28 21 -23 2 5 10 7 18 4 7 -3 11
-10 7 -16 -3 -6 -1 -7 5 -3 6 4 9 12 6 20 -6 16 27 18 39 2 6 -7 7 -4 3 7 -4
12 -2 17 6 15 7 -3 13 -13 13 -23 0 -10 8 -19 18 -21 9 -1 17 2 17 8 0 6 -7 8
-15 4 -18 -6 -20 10 -3 20 6 4 17 -1 25 -11 12 -17 13 -17 13 -2 0 9 -5 17
-11 17 -5 0 -7 5 -3 12 5 8 11 6 20 -6 8 -12 13 -13 16 -5 5 14 76 21 84 8 3
-5 15 -14 27 -19 20 -10 21 -10 4 3 -11 9 -14 18 -8 21 5 4 16 -3 25 -15 9
-13 21 -19 30 -16 18 7 22 27 6 27 -5 0 -9 3 -9 8 1 4 0 10 -1 15 -1 4 -3 12
-4 19 0 6 -7 13 -14 16 -11 3 -12 0 -2 -18 10 -18 9 -21 -1 -15 -8 5 -10 4 -5
-3 4 -7 2 -12 -3 -12 -6 0 -10 10 -8 21 1 12 -5 24 -13 26 -11 3 -12 2 -2 -5
7 -5 10 -16 6 -26 -5 -14 -9 -15 -15 -4 -7 11 -9 11 -9 -1 0 -11 -3 -11 -15
-1 -11 9 -15 9 -15 1 0 -7 -5 -9 -11 -5 -8 4 -7 9 2 15 16 9 19 31 6 40 -5 3
-1 9 8 12 9 4 13 3 10 -3 -6 -10 0 -12 35 -12 36 0 41 2 34 14 -5 8 -3 8 7 2
25 -16 63 -12 89 10 13 12 19 14 12 5 -18 -24 -1 -31 19 -8 18 21 18 21 14
-10 -2 -22 0 -31 8 -28 7 2 11 11 9 21 -2 9 2 16 8 16 6 0 8 6 4 13 -5 9 -4 9
6 0 9 -8 19 -9 30 -3 15 8 17 5 14 -20 -3 -28 -2 -29 16 -17 11 6 16 13 10 15
-5 2 -10 8 -10 13 0 6 4 8 9 5 5 -4 11 -3 14 1 2 5 2 2 1 -4 -5 -19 14 -16 25
5 6 9 11 11 11 5 0 -7 5 -13 11 -13 5 0 7 5 3 12 -4 7 -3 8 5 4 6 -4 9 -11 6
-16 -3 -4 2 -10 10 -14 8 -3 17 -1 20 4 3 4 -1 10 -7 13 -10 4 -10 7 0 18 11
12 13 12 10 0 -2 -7 3 -16 11 -19 8 -2 11 0 7 6 -8 13 17 22 44 17 16 -3 20 0
16 10 -6 16 30 41 53 36 8 -1 10 2 5 10 -4 7 -3 10 2 7 5 -2 20 7 34 21 13 14
22 26 20 27 -5 1 42 62 78 102 12 14 22 29 22 33 0 5 7 9 16 9 14 0 15 -2 3
-17 -12 -14 -9 -13 15 2 l29 19 -7 -24 -7 -25 15 25 c14 23 21 20 16 -5 -1 -5
7 -2 18 8 18 16 32 14 32 -5 0 -5 -5 -6 -12 -2 -7 4 -8 3 -4 -4 10 -17 26 -15
26 4 0 8 5 12 11 9 6 -4 8 -14 5 -24 -5 -14 -4 -14 6 -1 7 8 22 17 33 18 18 4
18 2 -5 -20 -14 -13 -28 -23 -32 -21 -5 2 -8 -2 -8 -11 0 -9 -8 -13 -25 -11
-31 3 -74 -29 -50 -39 31 -11 14 -22 -32 -20 -27 1 -42 0 -36 -3 9 -3 10 -10
3 -23 -5 -10 -7 -25 -4 -34 4 -9 0 -14 -10 -12 -20 3 -33 16 -16 16 7 0 10 3
7 7 -4 3 -2 12 4 20 9 10 8 13 0 13 -7 0 -9 4 -6 10 3 6 1 10 -5 10 -7 0 -9
-8 -5 -20 5 -16 2 -18 -16 -15 -12 2 -31 12 -43 22 l-21 18 20 -23 19 -23 -27
5 c-18 3 -25 1 -21 -6 4 -7 2 -8 -4 -4 -7 4 -12 2 -12 -3 0 -14 13 -14 27 0 7
7 12 6 16 -5 4 -10 1 -13 -9 -9 -7 3 -14 0 -14 -5 0 -6 9 -9 19 -7 12 2 19 -1
17 -8 -1 -7 -1 -9 1 -4 3 4 10 4 15 1 7 -5 8 -2 3 6 -5 9 -4 11 4 6 6 -4 9
-12 6 -17 -4 -5 -2 -9 4 -9 5 0 12 5 14 10 3 6 4 5 3 -2 -4 -18 -66 -19 -66
-1 0 8 -5 11 -10 8 -8 -5 -7 -12 2 -23 10 -12 10 -14 1 -8 -9 5 -11 2 -7 -11
4 -11 3 -14 -3 -7 -9 12 -43 15 -43 3 0 -9 -20 -6 -38 5 -19 11 -30 -3 -12
-15 12 -9 12 -10 -3 -5 -12 4 -16 2 -11 -6 5 -7 3 -8 -5 -3 -10 6 -11 3 -3
-12 10 -18 8 -20 -19 -20 l-31 0 24 14 c12 8 15 12 6 9 -10 -3 -20 -1 -23 4
-10 17 -24 11 -40 -17 -13 -23 -15 -24 -10 -5 4 13 2 22 -5 22 -6 0 -8 -5 -4
-12 5 -7 3 -8 -5 -3 -10 6 -11 3 -2 -13 7 -14 8 -23 1 -27 -5 -3 -11 -1 -11 4
-1 6 -2 17 -3 24 -1 6 3 18 8 26 9 11 8 13 -4 9 -8 -3 -14 -12 -14 -21 1 -10
-5 -14 -17 -12 -11 2 -19 -1 -19 -6 0 -6 -6 -7 -12 -2 -35 21 -68 -2 -48 -34
10 -16 10 -16 5 3 -4 14 -1 21 10 21 11 0 13 -6 9 -20 -4 -13 -2 -17 5 -13 6
4 11 14 11 22 0 8 5 12 10 9 7 -4 7 -12 0 -25 -6 -10 -6 -21 -2 -24 5 -3 9 1
10 9 1 8 3 21 4 29 1 8 10 14 20 13 20 -1 25 -17 6 -17 -9 0 -8 -3 2 -10 10
-6 21 -3 35 10 32 30 42 24 14 -7 -18 -20 -19 -24 -4 -13 26 19 35 32 29 42
-7 11 4 10 28 -3 16 -8 19 -8 13 1 -5 8 -3 11 6 8 8 -3 13 -11 12 -17 -2 -6 2
-11 7 -11 6 0 10 8 10 18 1 14 4 13 20 -7 11 -13 20 -19 20 -14 0 5 -6 15 -12
22 -11 11 -10 13 3 8 9 -3 22 0 29 6 9 9 11 8 8 -7 -2 -10 4 -21 12 -23 13 -4
13 -3 0 6 -13 9 -8 15 11 13 3 0 10 8 17 19 9 14 9 19 0 19 -15 0 -1 13 17 16
20 3 19 -2 -5 -42 -16 -25 -18 -34 -8 -40 7 -4 10 -4 6 1 -4 4 -3 16 3 27 8
15 13 17 25 7 9 -7 14 -8 14 -1 0 6 -6 12 -12 15 -7 2 -10 8 -6 12 4 4 24 -3
44 -16 21 -12 34 -17 30 -11 -7 11 6 17 27 13 5 -1 6 3 3 8 -4 5 -1 13 5 17 8
5 10 -1 7 -18 -4 -20 -1 -25 11 -23 9 1 20 -3 24 -9 6 -7 7 -6 4 4 -2 8 -10
14 -16 13 -6 -2 -11 3 -11 10 0 7 9 13 20 14 11 1 18 -2 15 -7 -3 -4 2 -10 10
-13 9 -4 12 -1 9 7 -3 7 2 13 11 13 11 0 13 -6 9 -20 -4 -13 -2 -17 5 -13 6 4
11 14 11 22 0 8 5 12 10 9 7 -4 7 -12 0 -25 -5 -10 -10 -22 -10 -27 1 -4 7 3
14 17 8 14 12 28 10 32 -6 10 10 11 19 1 4 -3 2 -11 -3 -18 -16 -19 26 -11 49
9 12 11 21 14 26 7 3 -6 1 -11 -6 -11 -7 0 -9 -3 -6 -6 4 -4 14 -1 23 7 9 7
21 14 28 15 6 1 16 3 21 4 18 4 55 -12 49 -21 -3 -5 0 -9 5 -9 6 0 11 3 11 8
0 4 51 7 113 6 83 -1 111 -4 109 -13 -1 -7 2 -10 7 -6 6 3 8 12 5 19 -5 14 34
15 57 0 7 -4 10 -3 6 3 -9 15 53 23 77 11 13 -7 16 -7 12 1 -4 6 -1 11 6 12 7
0 25 2 41 4 15 2 27 -1 27 -6 0 -5 5 -9 11 -9 5 0 7 5 3 12 -5 8 3 9 29 5 22
-3 37 -2 37 4 0 6 5 7 10 4 6 -4 8 -12 4 -18 -3 -7 0 -5 8 4 7 9 22 15 32 13
11 -2 25 0 30 4 18 11 50 10 65 -2 11 -8 13 -8 7 2 -4 7 -2 12 6 13 16 1 54 6
102 13 21 4 36 2 36 -4 0 -6 5 -10 11 -10 5 0 7 4 4 10 -3 6 1 7 9 4 9 -3 16
-2 16 2 0 5 19 9 43 9 24 -1 42 -5 42 -12 0 -6 3 -15 7 -19 4 -3 5 3 3 15 -3
18 -1 21 17 15 11 -3 18 -2 15 3 -3 5 4 10 16 10 12 1 25 -3 29 -10 5 -8 8 -6
8 5 0 10 3 17 8 16 4 -1 34 2 67 7 79 11 79 12 85 14 3 2 17 4 33 5 31 3 49
15 24 17 -10 1 -21 3 -27 4 -5 1 -22 3 -36 4 -19 1 -25 5 -20 17 3 8 2 13 -3
10 -7 -5 -21 14 -21 28 0 2 24 4 53 5 78 3 105 6 113 14 4 4 1 7 -7 7 -8 0
-24 7 -37 15 -18 13 -20 19 -10 35 7 11 22 19 33 18 25 -2 84 38 86 58 1 14 4
26 9 42 1 4 1 16 1 28 -1 12 7 44 18 73 10 28 16 53 12 56 -4 2 -7 14 -6 27 3
35 -12 56 -53 74 -50 21 -173 24 -229 6 -26 -9 -48 -11 -51 -6 -4 5 -16 10
-27 12 -24 4 -84 30 -103 45 -10 8 -10 12 0 18 8 5 4 10 -14 14 -14 4 -53 35
-86 70 -48 51 -79 72 -153 108 -128 60 -167 77 -183 77 -22 0 -78 58 -97 99
-13 29 -24 40 -48 44 -21 4 -50 26 -82 59 -47 49 -129 161 -129 176 -1 14 -39
53 -66 66 -14 8 -47 13 -72 12 -26 -2 -65 3 -88 10 -36 11 -45 10 -65 -4 -13
-9 -34 -17 -46 -18 -21 0 -73 -52 -73 -72 0 -6 -9 -8 -20 -5 -11 3 -20 9 -20
14 0 17 -41 31 -56 18 -8 -6 -14 -8 -14 -4 0 5 -9 0 -19 -9 -18 -16 -21 -16
-55 14 -19 18 -41 33 -48 34 -7 1 -35 13 -63 26 -27 14 -52 25 -55 26 -44 9
-77 36 -106 89 -44 80 -62 106 -108 149 -28 27 -76 61 -106 74 -30 14 -72 42
-92 61 -79 77 -110 103 -146 119 -69 32 -119 70 -126 96 -3 13 -15 28 -26 31
-32 10 -110 91 -110 114 0 24 -16 35 -53 37 -41 2 -187 113 -187 142 0 7 -9
17 -20 24 -11 7 -20 18 -20 23 0 6 -6 17 -12 23 -7 7 -14 27 -15 45 0 18 -4
59 -8 92 -4 33 -8 80 -9 105 l-1 45 -50 1 c-27 0 -64 -5 -82 -12 -27 -12 -37
-11 -68 2 -31 13 -40 13 -54 2 -9 -8 -28 -20 -43 -27 -22 -11 -58 -71 -43 -71
3 0 -4 -17 -14 -37 -21 -41 -33 -117 -21 -130 4 -4 5 -16 1 -26 -6 -17 -9 -16
-43 6 -20 14 -47 28 -59 32 -13 4 -55 22 -92 41 -37 20 -80 37 -95 39 -39 6
-92 23 -106 34 -20 17 -98 32 -180 36 -74 3 -80 2 -102 -22 -13 -15 -27 -23
-30 -20 -3 3 3 16 15 28 12 13 21 29 21 36 0 7 4 13 9 13 5 0 14 14 20 31 12
35 6 52 -33 88 -19 18 -23 28 -16 41 5 10 7 20 4 22 -3 3 -7 25 -8 49 -8 96
-58 193 -121 237 -26 18 -57 34 -69 37 -11 2 -32 6 -46 9 -17 4 -31 18 -45 48
l-20 43 -80 7 c-47 5 -82 4 -85 -2 -3 -5 -15 -11 -25 -13 -40 -7 -94 -36 -104
-56 -17 -32 -16 -113 3 -149 18 -34 13 -55 -22 -95 -9 -10 -17 -24 -19 -32 -6
-30 -10 -41 -26 -79 -18 -40 -24 -42 -32 -10 -3 11 -16 55 -31 99 -32 98 -64
136 -114 135 -68 -2 -99 6 -120 30 -11 12 -20 29 -20 37 0 7 -4 13 -10 13 -5
0 -18 17 -29 38 -11 20 -30 49 -43 64 -26 29 -83 43 -111 27z m4143 -2599 c11
-16 20 -40 20 -54 0 -38 18 -71 52 -91 22 -13 27 -20 17 -26 -7 -4 -17 -5 -21
-3 -4 3 -8 1 -8 -3 0 -5 -11 -10 -25 -11 -38 -3 -49 -6 -63 -20 -11 -10 -17
-10 -28 -1 -12 10 -13 9 -8 -5 5 -12 2 -15 -10 -10 -9 3 -13 11 -10 18 3 6 -1
3 -9 -6 -8 -10 -24 -19 -36 -21 -13 -2 -26 -9 -31 -17 -4 -7 -13 -9 -19 -6 -6
4 -11 2 -11 -3 0 -6 -5 -11 -11 -11 -5 0 -7 5 -4 10 3 6 2 10 -3 10 -17 0 -22
-13 -10 -29 11 -14 10 -14 -7 0 -11 9 -26 14 -32 12 -16 -6 -17 13 -2 23 6 3
15 0 20 -7 7 -12 12 -7 11 11 0 3 8 6 18 6 10 0 17 -3 15 -6 -2 -4 2 -7 10 -7
8 0 11 5 8 10 -4 6 -1 7 7 2 9 -6 11 -4 5 5 -5 8 -4 11 1 7 5 -3 10 3 10 14 0
19 -1 18 -19 -3 l-18 -23 5 25 c6 25 6 25 -5 3 -12 -24 -29 -31 -29 -13 0 6
-5 10 -11 10 -5 0 -7 -4 -4 -10 3 -5 -1 -10 -10 -10 -9 0 -13 5 -10 10 3 6 1
10 -5 10 -7 0 -9 -7 -6 -16 4 -12 2 -15 -9 -10 -22 8 -45 -3 -38 -20 3 -8 0
-14 -7 -14 -6 0 -8 5 -4 12 5 7 2 9 -8 6 -8 -4 -15 -1 -15 7 0 7 6 11 13 8 6
-2 15 1 19 7 12 19 -4 24 -31 9 -23 -12 -27 -11 -40 6 -12 16 -14 17 -14 2 0
-9 -5 -17 -11 -17 -5 0 -7 5 -3 11 4 8 0 8 -15 0 -29 -16 -27 -19 14 -15 19 1
33 -2 30 -7 -4 -5 1 -6 9 -3 9 3 16 2 16 -3 0 -5 -20 -8 -45 -7 -27 2 -43 -1
-40 -7 4 -5 2 -9 -3 -9 -22 0 -19 30 6 56 15 15 21 24 15 20 -9 -5 -11 -2 -7
8 3 9 10 16 15 16 5 0 9 5 9 10 0 11 39 67 82 118 24 29 47 39 108 46 59 6
142 31 147 42 6 17 46 -8 73 -46z m-6118 -6 c44 -8 84 -12 88 -9 12 7 50 -36
107 -119 26 -39 50 -73 53 -76 3 -3 11 -17 19 -32 8 -16 18 -28 23 -28 4 0 8
-6 8 -14 0 -7 7 -19 15 -26 8 -7 13 -16 10 -20 -2 -4 0 -22 5 -40 10 -36 -2
-56 -35 -56 -11 0 -35 -6 -53 -13 -27 -11 -43 -12 -84 -3 -27 7 -62 12 -77 12
-15 0 -32 5 -39 12 -9 9 -12 9 -12 -1 0 -7 -5 -9 -10 -6 -6 4 -8 11 -5 16 3 5
-1 6 -9 3 -9 -3 -13 -11 -9 -18 4 -6 -2 -4 -12 4 -15 12 -17 12 -10 1 6 -11 3
-13 -13 -9 -12 4 -25 1 -29 -4 -4 -7 -1 -8 8 -3 12 8 12 6 0 -8 -7 -9 -18 -14
-23 -11 -5 3 -16 -2 -24 -12 -13 -18 -14 -18 -7 1 6 18 5 18 -10 6 -9 -7 -14
-18 -10 -25 3 -6 2 -7 -2 -3 -13 11 -15 38 -3 31 7 -4 8 -2 4 4 -4 7 1 10 14
7 11 -2 18 0 15 6 -4 5 -11 7 -16 4 -5 -4 -9 0 -9 7 0 10 -2 10 -9 -1 -12 -19
-54 -23 -47 -5 3 7 1 16 -5 19 -5 4 -9 3 -8 -2 3 -19 -2 -34 -10 -29 -5 3 -7
-7 -6 -23 1 -16 -2 -35 -7 -43 -8 -10 -9 -9 -5 4 8 23 -14 38 -46 32 -15 -2
-27 0 -27 5 0 6 9 8 20 6 17 -3 18 -1 7 16 -11 18 -13 17 -33 -16 -33 -55 -36
-53 -12 6 12 30 25 56 28 59 3 3 6 12 8 20 2 8 9 29 17 45 24 56 56 151 59
175 4 42 26 108 39 122 8 7 21 25 31 40 15 23 21 26 38 17 11 -6 56 -17 100
-25z m5834 -259 c1 -14 -2 -25 -6 -25 -6 0 -7 36 -1 48 4 7 6 -1 7 -23z m-121
-5 c-3 -5 -12 -10 -18 -10 -7 0 -6 4 3 10 19 12 23 12 15 0z m27 -7 c-6 -2 -9
-10 -6 -15 4 -7 2 -8 -5 -4 -13 9 -5 26 12 25 9 0 8 -2 -1 -6z m-109 -18 c-3
-9 -8 -14 -10 -11 -3 3 -2 9 2 15 9 16 15 13 8 -4z m74 -7 c11 -19 13 -39 2
-32 -5 3 -7 9 -4 14 3 5 -3 13 -12 19 -10 6 -13 11 -6 11 6 0 15 -6 20 -12z
m-26 -15 c13 -16 12 -17 -3 -4 -17 13 -22 21 -14 21 2 0 10 -8 17 -17z m116
-10 c0 -9 -4 -10 -14 -2 -7 6 -13 12 -13 14 0 1 6 2 13 2 8 0 14 -6 14 -14z
m-150 -7 c-3 -7 5 -23 18 -34 l24 -21 7 21 c5 16 8 18 15 7 6 -10 9 -11 9 -1
0 6 5 12 11 12 8 0 8 -5 -1 -15 -7 -8 -16 -12 -21 -9 -5 3 -9 0 -9 -5 0 -6 15
-11 33 -11 24 0 28 3 17 10 -13 8 -13 10 1 10 9 0 19 -7 23 -15 3 -8 11 -15
17 -15 8 0 8 4 -1 15 -9 10 -9 15 -1 15 6 0 11 -5 11 -11 0 -6 8 -8 18 -5 14
5 14 4 -2 -9 -23 -17 -46 -20 -46 -5 0 8 -31 -1 -46 -14 0 -1 -8 5 -17 13 -10
7 -17 10 -17 6 0 -4 -6 -2 -14 4 -10 8 -16 9 -21 1 -3 -6 -12 -7 -18 -3 -7 4
-21 8 -32 9 -47 2 -49 5 -20 21 20 11 30 12 33 4 2 -6 11 -11 20 -11 12 0 13
3 5 11 -11 11 -7 39 4 39 3 0 3 -6 0 -14z m110 7 c-4 -3 1 -12 11 -20 15 -13
15 -13 -6 -3 -19 9 -23 30 -5 30 4 0 3 -3 0 -7z m87 -12 c-3 -3 -11 -6 -17 -6
-7 -1 -11 -7 -9 -14 1 -7 -2 -10 -8 -6 -14 9 4 32 25 32 8 0 12 -3 9 -6z
m-6007 -124 c-3 -7 -10 -11 -17 -9 -7 2 -9 -5 -5 -20 5 -22 5 -21 -9 2 -17 29
-15 35 14 37 13 1 20 -3 17 -10z m-116 -40 c-7 -7 -14 -8 -21 -1 -6 6 -2 10
12 11 16 2 18 -1 9 -10z m39 3 c0 -5 -2 -10 -4 -10 -3 0 -8 5 -11 10 -3 6 -1
10 4 10 6 0 11 -4 11 -10z m-22 -22 c-2 -7 5 -13 14 -13 22 0 33 -12 11 -12
-23 0 -45 16 -37 28 8 13 14 11 12 -3z m5862 -28 c0 -5 -6 -10 -12 -10 -9 0
-8 -3 2 -9 18 -12 33 -3 26 16 -4 9 -1 13 6 11 14 -5 19 -36 7 -44 -5 -3 -9
-10 -9 -16 0 -6 9 -3 20 7 11 10 17 21 13 24 -17 12 -12 30 8 28 27 -2 39 -26
30 -62 0 -3 -10 -1 -21 5 -22 12 -23 10 -14 -14 3 -9 10 -13 15 -10 5 3 9 0 9
-6 0 -6 -8 -9 -17 -6 -32 10 -58 -18 -33 -34 9 -5 9 -9 1 -14 -6 -4 -11 -3
-11 1 0 5 -9 9 -20 10 -11 1 -20 -2 -20 -7 0 -5 -9 -14 -21 -20 -17 -9 -26 -7
-53 14 -19 14 -36 22 -40 19 -3 -4 -6 -1 -6 5 0 11 19 16 47 13 6 -1 17 7 25
17 7 9 21 18 31 19 34 1 38 3 32 13 -4 6 -10 8 -15 5 -16 -10 -21 14 -8 35 14
21 28 27 28 10z m-5962 -35 c-3 -3 -9 2 -12 12 -6 14 -5 15 5 6 7 -7 10 -15 7
-18z m80 0 c-3 -3 -9 2 -12 12 -6 14 -5 15 5 6 7 -7 10 -15 7 -18z m42 11 c0
-3 -4 -8 -10 -11 -5 -3 -10 -1 -10 4 0 6 5 11 10 11 6 0 10 -2 10 -4z m5740
-8 c0 -9 3 -8 10 2 7 12 9 10 7 -7 -1 -17 -4 -19 -14 -11 -7 6 -13 7 -13 4 0
-4 -5 -4 -10 -1 -12 7 -4 25 11 25 5 0 9 -6 9 -12z m-5783 -50 c4 -28 -6 -18
-12 12 -2 12 -1 20 2 16 4 -4 8 -16 10 -28z m5606 17 c-3 -9 -8 -14 -10 -11
-3 3 -2 9 2 15 9 16 15 13 8 -4z m397 11 c0 -2 -8 -10 -17 -17 -16 -13 -17
-12 -4 4 13 16 21 21 21 13z m-6080 -16 c0 -5 -5 -10 -11 -10 -5 0 -7 5 -4 10
3 6 8 10 11 10 2 0 4 -4 4 -10z m6110 -16 c0 -8 -19 -13 -24 -6 -3 5 1 9 9 9
8 0 15 -2 15 -3z m-19 -31 c2 1 1 -2 -4 -8 -9 -11 -78 -15 -71 -4 2 4 -2 9 -8
12 -8 2 -9 8 -4 13 5 5 11 4 13 -3 3 -7 11 -13 19 -13 9 0 13 4 10 9 -10 15
18 20 30 5 6 -8 13 -13 15 -11z m83 -3 c4 0 5 4 2 8 -3 5 1 9 7 9 15 0 20 -34
7 -42 -5 -3 -12 0 -15 6 -5 7 -15 4 -29 -10 -20 -19 -22 -19 -33 -3 -8 14 -7
23 5 37 11 15 13 16 9 3 -6 -18 18 -33 28 -18 4 6 2 10 -3 10 -5 0 -9 7 -9 16
0 15 1 15 12 0 7 -9 15 -16 19 -16z m-4338 5 c-1 -8 -5 -17 -8 -21 -5 -4 -4
16 1 34 3 9 9 -1 7 -13z m200 -10 c-1 -13 -4 -27 -7 -30 -5 -4 -4 41 0 53 4
10 8 -2 7 -23z m799 15 c3 -5 1 -10 -4 -10 -6 0 -11 5 -11 10 0 6 2 10 4 10 3
0 8 -4 11 -10z m100 1 c3 -5 2 -12 -3 -15 -5 -3 -9 1 -9 9 0 17 3 19 12 6z
m1541 -14 c-3 -20 -16 -37 -29 -37 -7 0 -4 5 5 10 10 6 15 19 13 30 -2 11 0
18 5 15 4 -3 7 -11 6 -18z m79 13 c3 -5 1 -10 -4 -10 -6 0 -11 5 -11 10 0 6 2
10 4 10 3 0 8 -4 11 -10z m76 -17 c-12 -20 -14 -14 -5 12 4 9 9 14 11 11 3 -2
0 -13 -6 -23z m74 17 c-3 -5 -12 -10 -18 -10 -7 0 -6 4 3 10 19 12 23 12 15 0z
m385 0 c0 -5 -5 -10 -11 -10 -5 0 -7 5 -4 10 3 6 8 10 11 10 2 0 4 -4 4 -10z
m21 -17 c-12 -20 -14 -14 -5 12 4 9 9 14 11 11 3 -2 0 -13 -6 -23z m107 2 c-3
-3 -9 2 -12 12 -6 14 -5 15 5 6 7 -7 10 -15 7 -18z m35 8 c-3 -7 -6 -13 -8
-13 -2 0 -5 6 -8 13 -3 8 1 14 8 14 7 0 11 -6 8 -14z m42 7 c3 -5 1 -10 -4
-10 -6 0 -11 5 -11 10 0 6 2 10 4 10 3 0 8 -4 11 -10z m40 0 c3 -5 1 -10 -4
-10 -6 0 -11 5 -11 10 0 6 2 10 4 10 3 0 8 -4 11 -10z m896 -4 c14 8 11 -2 -4
-14 -10 -8 -13 -6 -14 11 0 12 1 16 4 9 3 -6 9 -10 14 -6z m-4918 -11 c-3 -9
-8 -14 -10 -11 -3 3 -2 9 2 15 9 16 15 13 8 -4z m42 -4 c-3 -6 -11 -9 -16 -6
-5 4 -9 1 -9 -4 0 -6 2 -11 4 -11 2 0 12 -3 22 -7 12 -4 15 -3 10 5 -4 7 -2
12 4 12 7 0 9 -8 4 -22 -6 -19 -5 -21 8 -11 11 10 17 10 28 0 10 -10 12 -9 7
4 -3 9 -1 22 5 30 8 11 9 11 4 -3 -3 -10 -1 -20 4 -23 6 -4 10 -1 10 6 0 10 3
10 11 2 8 -8 7 -17 -1 -34 -7 -13 -9 -21 -5 -17 4 4 15 3 24 -2 13 -7 17 -4
18 13 0 12 -1 16 -4 10 -3 -7 -10 -13 -16 -13 -8 0 -8 3 0 11 14 14 -5 61 -21
52 -6 -3 -7 -2 -3 2 12 14 38 15 36 2 -2 -20 1 -31 17 -52 13 -17 16 -18 24
-5 14 22 12 28 -7 26 -10 0 -18 7 -19 17 -1 12 0 13 3 2 2 -8 9 -15 14 -15 6
0 7 5 3 12 -5 7 -3 8 7 2 18 -11 41 -12 56 -1 18 13 37 -2 23 -18 -7 -9 -6
-16 7 -26 14 -12 16 -12 11 1 -5 14 17 70 28 70 2 0 1 -8 -4 -17 -4 -10 -7
-28 -6 -40 0 -13 -3 -23 -7 -23 -5 0 -11 0 -14 0 -3 0 -19 -7 -35 -15 -23 -12
-35 -13 -51 -5 -13 7 -25 8 -32 2 -19 -15 -59 -7 -78 16 -13 17 -20 19 -26 10
-4 -7 -8 -17 -8 -22 0 -5 -5 -11 -11 -13 -7 -2 -11 4 -10 14 1 17 -19 25 -39
14 -20 -11 -31 -8 -30 8 2 23 36 72 46 65 5 -3 9 0 9 7 0 7 3 10 6 6 3 -3 3
-11 -1 -16z m45 -16 c0 -5 -5 -3 -10 5 -5 8 -10 20 -10 25 0 6 5 3 10 -5 5 -8
10 -19 10 -25z m137 20 c0 -8 -4 -12 -9 -9 -5 3 -6 10 -3 15 9 13 12 11 12 -6z
m38 6 c3 -5 0 -13 -6 -17 -7 -4 -9 -3 -5 4 3 5 0 13 -6 15 -9 4 -10 6 -1 6 6
1 14 -3 18 -8z m549 -7 c3 -8 2 -12 -4 -9 -6 3 -10 10 -10 16 0 14 7 11 14 -7z
m393 -16 c2 -12 1 -19 -2 -16 -3 3 -8 16 -10 28 -2 12 -1 20 2 16 4 -4 8 -16
10 -28z m1880 17 c0 -8 -4 -15 -9 -15 -10 0 -11 14 -1 23 9 10 10 9 10 -8z
m1400 -15 c2 -12 -3 -20 -12 -20 -8 0 -15 5 -15 11 0 5 5 7 12 3 7 -5 8 -3 3
6 -6 10 -12 7 -25 -10 -17 -22 -18 -22 -28 -4 -11 18 -11 18 -12 1 0 -10 -4
-15 -10 -12 -23 14 -2 32 48 41 8 1 16 5 20 8 8 8 15 -1 19 -24z m-4067 5 c0
-11 -29 -11 -33 -1 -4 10 1 12 14 9 10 -3 19 -7 19 -8z m179 -11 c-8 -10 -6
-21 11 -44 12 -17 25 -28 30 -25 5 3 11 1 15 -5 4 -6 12 -7 18 -4 7 4 4 -1 -5
-11 -16 -17 -19 -17 -41 -2 -14 9 -28 13 -32 9 -10 -11 -85 -10 -85 1 0 5 -6
4 -14 -2 -10 -9 -16 -8 -25 3 -7 8 -19 12 -27 9 -8 -3 -14 0 -14 5 0 6 9 9 20
7 11 -2 22 0 25 5 3 5 -4 7 -15 5 -11 -2 -20 1 -20 7 0 5 -8 0 -18 -12 -19
-23 -49 -20 -36 3 4 7 -3 2 -15 -10 -23 -25 -41 -32 -22 -10 6 8 8 17 4 21 -4
4 -8 19 -10 34 -2 27 -2 27 7 3 9 -20 12 -22 27 -10 9 8 14 9 10 3 -4 -7 7
-11 33 -11 22 0 37 4 34 9 -4 5 3 4 15 -4 12 -7 19 -19 16 -26 -3 -8 0 -10 7
-6 6 4 8 3 5 -4 -5 -6 0 -8 12 -5 10 3 22 0 25 -6 4 -5 13 -8 22 -4 12 5 12 7
-3 18 -10 7 -25 11 -35 10 -10 -2 -18 0 -18 6 0 5 5 9 11 9 5 0 7 6 3 13 -5 8
-2 8 9 -2 12 -10 21 -10 30 -3 10 8 16 6 26 -9 7 -12 15 -19 17 -16 3 3 -3 18
-13 33 -12 19 -13 25 -4 19 11 -6 13 -4 8 8 -4 11 -2 14 9 10 11 -4 12 -9 3
-19z m495 18 c2 -4 -4 -8 -14 -8 -10 0 -16 4 -14 8 3 4 9 8 14 8 5 0 11 -4 14
-8z m80 0 c2 -4 -4 -8 -14 -8 -10 0 -16 4 -14 8 3 4 9 8 14 8 5 0 11 -4 14 -8z
m396 0 c0 -5 -7 -9 -15 -9 -8 0 -12 4 -9 9 3 4 9 8 15 8 5 0 9 -4 9 -8z m157
-14 c2 -17 0 -19 -7 -8 -5 8 -6 18 -4 22 8 12 10 10 11 -14z m1003 18 c0 -2
-7 -7 -16 -10 -8 -3 -12 -2 -9 4 6 10 25 14 25 6z m35 -4 c-3 -3 0 -11 7 -19
6 -7 9 -15 7 -17 -2 -2 -12 6 -21 18 -13 18 -14 23 -2 23 8 0 12 -3 9 -5z m46
-10 c-7 -2 -18 1 -23 6 -8 8 -4 9 13 5 13 -4 18 -8 10 -11z m109 3 c7 -8 16
-12 21 -9 5 3 9 0 9 -5 0 -16 -9 -14 -37 9 -14 11 -21 20 -16 20 6 0 16 -7 23
-15z m53 -2 c-3 -7 -6 -13 -8 -13 -2 0 -5 6 -8 13 -3 8 1 14 8 14 7 0 11 -6 8
-14z m82 7 c3 -6 -1 -7 -9 -4 -18 7 -21 14 -7 14 6 0 13 -4 16 -10z m358 -7
c-4 -11 -3 -14 5 -9 8 5 10 2 5 -10 -5 -15 -7 -15 -15 0 -5 9 -6 21 -3 26 10
16 15 12 8 -7z m62 -1 c-3 -3 -11 0 -18 7 -9 10 -8 11 6 5 10 -3 15 -9 12 -12z
m55 8 c0 -5 -4 -10 -10 -10 -5 0 -10 5 -10 10 0 6 5 10 10 10 6 0 10 -4 10
-10z m55 0 c-3 -5 -12 -10 -18 -10 -7 0 -6 4 3 10 19 12 23 12 15 0z m62 4
c-3 -3 -12 -4 -19 -1 -8 3 -5 6 6 6 11 1 17 -2 13 -5z m83 -4 c0 -5 -4 -10
-10 -10 -5 0 -10 5 -10 10 0 6 5 10 10 10 6 0 10 -4 10 -10z m91 -17 c-8 -15
-10 -15 -11 -2 0 17 10 32 18 25 2 -3 -1 -13 -7 -23z m-3324 -15 c-3 -7 -5 -2
-5 12 0 14 2 19 5 13 2 -7 2 -19 0 -25z m470 26 c-3 -3 -12 -4 -19 -1 -8 3 -5
6 6 6 11 1 17 -2 13 -5z m53 -8 c-4 -4 -16 -4 -26 2 -16 9 -14 10 8 9 15 -1
23 -6 18 -11z m278 -5 c-12 -19 -28 -19 -28 0 0 6 4 8 9 4 5 -3 12 -1 16 5 3
5 8 10 11 10 2 0 -1 -9 -8 -19z m76 -6 c-9 -14 -20 -25 -25 -25 -14 0 -20 18
-8 26 8 4 9 3 5 -4 -4 -7 -3 -12 1 -12 5 0 14 9 21 20 7 11 14 20 17 20 3 0
-2 -11 -11 -25z m453 2 c-2 -7 10 -22 27 -34 29 -22 44 -53 25 -53 -5 0 -9 5
-9 10 0 6 -12 23 -27 38 -25 25 -41 68 -21 56 5 -3 7 -11 5 -17z m164 6 c13
-16 12 -17 -3 -4 -17 13 -22 21 -14 21 2 0 10 -8 17 -17z m480 0 c13 -16 12
-17 -3 -4 -17 13 -22 21 -14 21 2 0 10 -8 17 -17z m98 2 c7 3 8 0 5 -9 -8 -22
-17 -20 -33 7 -13 20 -13 21 2 9 9 -8 21 -11 26 -7z m88 6 c9 8 4 -5 -12 -28
-22 -34 -25 -46 -16 -57 9 -11 9 -16 1 -21 -14 -9 -30 6 -34 31 -2 10 -8 20
-15 22 -6 2 -11 0 -10 -5 1 -4 0 -11 -1 -15 -3 -9 -7 -24 -9 -34 0 -4 -8 -1
-16 6 -11 9 -15 9 -15 1 0 -7 -5 -9 -11 -6 -6 4 -8 14 -5 22 3 8 2 11 -3 8 -5
-3 -12 4 -16 15 -8 26 -20 26 -22 0 -1 -11 4 -19 10 -17 7 1 12 -5 12 -13 0
-11 -12 -15 -45 -16 -25 -1 -52 -4 -61 -8 -9 -4 -24 1 -37 11 -21 18 -21 18
-2 42 11 13 20 18 20 11 0 -7 7 -10 16 -6 8 3 13 2 11 -2 -2 -4 4 -15 15 -24
22 -22 23 -16 3 22 -14 26 -14 29 0 24 8 -3 12 -10 9 -15 -8 -13 4 -11 30 6
22 15 61 11 51 -5 -3 -4 2 -11 11 -14 8 -3 12 -11 8 -17 -4 -8 -3 -9 5 -5 6 4
9 16 6 27 -4 11 -2 19 5 19 6 0 8 -4 5 -10 -9 -14 8 -13 23 2 9 9 15 9 24 0
14 -14 32 -16 24 -3 -3 5 1 12 10 15 15 6 15 9 -2 29 -16 18 -16 19 -1 8 14
-11 20 -11 34 0z m203 -5 c-7 -7 -13 -7 -20 0 -6 6 -3 10 10 10 13 0 16 -4 10
-10z m354 -5 c-10 -10 -21 -14 -22 -9 -2 4 -9 5 -14 2 -7 -4 -8 -2 -4 5 4 6
11 9 15 7 4 -3 13 -1 21 5 24 14 25 11 4 -10z m76 -11 c0 -6 -9 -2 -20 7 -11
10 -20 19 -20 21 0 1 9 -2 20 -8 11 -6 20 -15 20 -20z m89 4 c14 -12 -19 -1
-35 12 -18 14 -18 14 6 3 14 -6 27 -13 29 -15z m-2934 6 c-27 -12 -43 -12 -25
0 8 5 22 9 30 9 10 0 8 -3 -5 -9z m105 0 c0 -5 -4 -10 -10 -10 -5 0 -10 5 -10
10 0 6 5 10 10 10 6 0 10 -4 10 -10z m73 -5 c-3 -9 -8 -14 -10 -11 -3 3 -2 9
2 15 9 16 15 13 8 -4z m271 3 c-3 -5 -10 -6 -15 -3 -5 4 -9 1 -9 -6 0 -7 -3
-10 -6 -6 -9 9 3 24 20 24 8 0 13 -4 10 -9z m586 -3 c19 -22 8 -25 -12 -3 -10
10 -14 18 -9 18 5 0 14 -7 21 -15z m170 3 c0 -4 -7 -8 -16 -8 -9 0 -12 -5 -8
-12 4 -7 3 -9 -1 -5 -16 14 -13 33 6 33 11 0 19 -4 19 -8z m230 -22 c-7 -7
-15 -5 -22 3 -11 10 -10 11 5 5 14 -5 16 -2 11 12 -5 16 -4 16 5 4 6 -9 7 -18
1 -24z m86 0 c1 -10 -4 -12 -14 -8 -11 4 -12 7 -4 10 10 3 10 7 0 20 -10 14
-10 15 2 5 8 -7 15 -19 16 -27z m164 24 c0 -5 -5 -10 -11 -10 -5 0 -7 5 -4 10
3 6 8 10 11 10 2 0 4 -4 4 -10z m117 -12 c2 -18 0 -20 -7 -8 -12 18 -13 30 -2
30 4 0 9 -10 9 -22z m168 12 c-3 -5 -13 -10 -21 -10 -8 0 -12 -4 -9 -10 3 -5
4 -10 1 -10 -17 0 -13 22 6 29 30 13 30 13 23 1z m268 -5 c-3 -9 -8 -14 -10
-11 -3 3 -2 9 2 15 9 16 15 13 8 -4z m365 -10 c-3 -3 -9 2 -12 12 -6 14 -5 15
5 6 7 -7 10 -15 7 -18z m417 7 c-3 -3 -11 0 -18 7 -9 10 -8 11 6 5 10 -3 15
-9 12 -12z m152 3 c-11 -7 -26 -11 -34 -8 -18 7 -3 18 29 20 22 2 22 1 5 -12z
m163 6 c0 -5 -9 -7 -20 -4 -11 3 -20 7 -20 9 0 2 9 4 20 4 11 0 20 -4 20 -9z
m550 0 c0 -5 -7 -11 -14 -14 -10 -4 -13 -1 -9 9 6 15 23 19 23 5z m-3146 -10
c4 -5 -3 -7 -14 -4 -23 6 -26 13 -6 13 8 0 17 -4 20 -9z m240 -2 c-4 -6 1 -9
13 -7 12 2 32 -11 52 -32 21 -23 29 -27 22 -13 -14 28 -14 33 1 33 6 0 8 -3 5
-7 -14 -13 54 -51 88 -48 40 2 43 0 16 -15 -22 -11 -67 4 -89 30 -10 13 -11
12 -5 -4 5 -15 3 -18 -10 -13 -9 3 -19 1 -23 -5 -5 -8 -10 -7 -18 3 -15 19
-35 22 -52 8 -11 -9 -14 -9 -14 0 0 7 -4 9 -10 6 -9 -6 -14 8 -11 28 1 5 -9 6
-21 2 -22 -5 -21 -5 2 9 22 13 26 13 37 -1 7 -9 10 -20 6 -26 -3 -5 0 -7 8 -5
8 3 13 11 12 17 -2 6 2 10 8 9 6 -2 14 3 17 11 3 9 0 11 -7 7 -16 -10 -44 1
-36 14 3 5 8 10 11 10 3 0 2 -5 -2 -11z m277 -12 c-10 -9 -11 -8 -5 6 3 10 9
15 12 12 3 -3 0 -11 -7 -18z m363 11 c-5 -8 -2 -9 9 -5 10 3 17 2 17 -3 0 -12
-27 -13 -34 -1 -3 4 -3 11 1 15 10 10 15 7 7 -6z m386 2 c0 -5 -5 -10 -11 -10
-5 0 -7 5 -4 10 3 6 8 10 11 10 2 0 4 -4 4 -10z m80 0 c0 -5 -5 -10 -11 -10
-5 0 -7 5 -4 10 3 6 8 10 11 10 2 0 4 -4 4 -10z m80 0 c0 -5 -5 -10 -11 -10
-5 0 -7 5 -4 10 3 6 8 10 11 10 2 0 4 -4 4 -10z m-1040 -10 c0 -5 -7 -7 -15
-4 -8 4 -15 8 -15 10 0 2 7 4 15 4 8 0 15 -4 15 -10z m240 -16 c0 -2 -9 0 -20
6 -11 6 -20 13 -20 16 0 2 9 0 20 -6 11 -6 20 -13 20 -16z m360 22 c0 -3 -4
-8 -10 -11 -5 -3 -10 -1 -10 4 0 6 5 11 10 11 6 0 10 -2 10 -4z m40 -6 c0 -5
-7 -7 -15 -4 -8 4 -15 8 -15 10 0 2 7 4 15 4 8 0 15 -4 15 -10z m1001 -13
c-10 -9 -11 -8 -5 6 3 10 9 15 12 12 3 -3 0 -11 -7 -18z m-1193 -8 c15 -11 27
-26 27 -32 1 -7 7 -10 15 -9 8 2 12 0 7 -4 -13 -13 -45 -12 -40 2 3 7 -7 25
-21 39 -30 30 -24 33 12 4z m-1128 -18 c8 -15 8 -21 1 -17 -6 4 -17 4 -23 0
-16 -10 -48 -13 -53 -4 -2 4 3 7 12 7 9 0 24 9 32 20 9 12 17 20 17 19 1 0 7
-12 14 -25z m1390 19 c0 -5 -4 -10 -10 -10 -5 0 -10 5 -10 10 0 6 5 10 10 10
6 0 10 -4 10 -10z m1687 -7 c-4 -3 -2 -12 4 -20 8 -9 8 -13 1 -13 -6 0 -14 5
-17 10 -6 10 2 30 12 30 4 0 3 -3 0 -7z m-257 -7 c0 -2 -7 -6 -15 -10 -8 -3
-15 -1 -15 4 0 6 7 10 15 10 8 0 15 -2 15 -4z m-2980 -21 c0 -7 -30 -13 -34
-7 -3 4 4 9 15 9 10 1 19 0 19 -2z m1035 -23 c-3 -3 -11 0 -18 7 -9 10 -8 11
6 5 10 -3 15 -9 12 -12z m65 9 c3 -1 -2 -5 -10 -10 -15 -10 -30 -6 -30 9 0 4
8 7 18 5 9 -2 19 -4 22 -4z m-2745 -225 c-18 -13 -17 -13 9 -13 16 0 31 -5 35
-10 3 -5 15 -9 25 -8 11 0 21 -7 23 -15 3 -10 2 -11 -4 -4 -4 6 -16 10 -25 8
-10 -1 -20 2 -23 6 -3 5 -11 7 -18 4 -7 -2 -21 2 -32 11 -17 13 -18 16 -5 25
23 15 36 12 15 -4z m-80 -6 c3 -5 2 -10 -4 -10 -5 0 -13 5 -16 10 -3 6 -2 10
4 10 5 0 13 -4 16 -10z"/>
<path d="M7375 3640 c-3 -5 -1 -10 4 -10 6 0 11 5 11 10 0 6 -2 10 -4 10 -3 0
-8 -4 -11 -10z"/>
<path d="M7433 3615 c0 -8 4 -12 9 -9 5 3 6 10 3 15 -9 13 -12 11 -12 -6z"/>
<path d="M7358 3613 c7 -3 16 -2 19 1 4 3 -2 6 -13 5 -11 0 -14 -3 -6 -6z"/>
<path d="M7590 3610 c0 -5 7 -7 15 -4 8 4 15 8 15 10 0 2 -7 4 -15 4 -8 0 -15
-4 -15 -10z"/>
<path d="M1476 3442 c-3 -5 1 -9 9 -9 8 0 12 4 9 9 -3 4 -7 8 -9 8 -2 0 -6 -4
-9 -8z"/>
<path d="M1675 3440 c3 -5 8 -10 11 -10 2 0 4 5 4 10 0 6 -5 10 -11 10 -5 0
-7 -4 -4 -10z"/>
<path d="M1436 3421 c-3 -5 2 -15 12 -22 15 -12 16 -12 5 2 -7 9 -10 19 -6 22
3 4 4 7 0 7 -3 0 -8 -4 -11 -9z"/>
<path d="M1513 3403 c0 -7 4 -13 7 -13 4 0 12 6 18 13 8 10 6 13 -7 13 -10 0
-18 -6 -18 -13z"/>
<path d="M1330 3408 c0 -4 14 -22 31 -40 29 -32 30 -32 18 -5 -7 15 -14 25
-17 22 -3 -2 -11 3 -18 13 -7 9 -14 14 -14 10z"/>
<path d="M1385 3400 c-3 -5 -1 -10 4 -10 6 0 11 5 11 10 0 6 -2 10 -4 10 -3 0
-8 -4 -11 -10z"/>
<path d="M1755 3400 c3 -5 8 -10 11 -10 2 0 4 5 4 10 0 6 -5 10 -11 10 -5 0
-7 -4 -4 -10z"/>
<path d="M7200 3450 c-12 -7 -10 -9 7 -7 12 0 19 5 17 9 -6 10 -6 10 -24 -2z"/>
<path d="M7279 3269 c0 -2 -2 -12 -4 -21 -2 -9 3 -19 10 -22 9 -3 12 2 10 16
-4 19 -14 37 -16 27z"/>
<path d="M7225 3240 c-4 -6 -11 -7 -17 -4 -7 4 -8 2 -4 -5 6 -9 11 -9 22 0 14
11 18 19 10 19 -3 0 -8 -5 -11 -10z"/>
<path d="M7207 3203 c-2 -2 -15 -6 -27 -8 -13 -2 -33 -14 -45 -25 -17 -16 -24
-18 -28 -8 -4 9 -6 9 -6 1 -1 -7 8 -17 19 -23 17 -9 19 -8 13 7 -6 15 -4 16 9
6 8 -7 18 -10 21 -6 4 3 7 0 7 -7 0 -9 5 -8 13 5 8 10 19 15 25 11 6 -3 14 -1
18 5 4 7 3 9 -4 5 -5 -3 -13 0 -16 6 -5 11 -7 11 -12 0 -6 -14 -24 -7 -24 10
0 6 3 8 6 5 4 -3 16 -2 27 4 14 8 18 8 13 0 -10 -15 6 -14 29 3 18 13 17 14
-8 14 -14 0 -28 -2 -30 -5z m-38 -37 c11 -14 6 -15 -27 -7 -4 1 8 21 12 21 2
0 9 -6 15 -14z"/>
<path d="M7307 3157 c-3 -8 1 -14 8 -14 7 0 11 6 8 14 -3 7 -6 13 -8 13 -2 0
-5 -6 -8 -13z"/>
<path d="M2560 3105 c-9 -11 -10 -15 -1 -15 7 0 9 -5 5 -12 -4 -7 -3 -8 5 -4
6 4 8 13 4 19 -4 7 0 6 10 -2 9 -7 17 -10 17 -6 0 4 6 2 14 -4 10 -9 17 -7 27
6 13 16 12 17 -3 5 -11 -9 -18 -10 -23 -3 -14 23 -43 31 -55 16z"/>
<path d="M2826 3111 c-4 -5 -3 -17 1 -27 6 -16 5 -17 -9 -4 -9 8 -14 18 -11
23 2 4 0 7 -5 7 -13 0 -22 -24 -13 -38 3 -6 15 -9 26 -7 11 2 24 4 29 4 5 1 4
7 -3 14 -8 10 -7 17 1 25 9 9 9 12 1 12 -7 0 -14 -4 -17 -9z"/>
<path d="M2683 3093 c-15 -5 -17 -23 -4 -23 5 0 11 7 15 15 3 8 4 15 3 14 -1
0 -8 -3 -14 -6z"/>
<path d="M2916 3078 c3 -5 10 -6 15 -3 13 9 11 12 -6 12 -8 0 -12 -4 -9 -9z"/>
<path d="M2964 3082 c3 -5 0 -13 -6 -15 -9 -4 -10 -6 -1 -6 17 -1 25 16 12 25
-7 4 -9 3 -5 -4z"/>
<path d="M3110 3081 c0 -5 9 -13 20 -16 12 -4 17 -11 14 -18 -5 -8 -3 -8 6 0
11 10 17 10 29 0 14 -11 14 -10 2 5 -7 10 -17 16 -21 13 -4 -3 -13 2 -20 10
-14 17 -30 20 -30 6z"/>
<path d="M5002 3067 c-7 -8 -7 -18 -2 -27 8 -12 10 -12 10 -1 0 10 3 11 14 2
10 -8 16 -9 21 -1 4 6 1 9 -7 8 -7 -2 -12 5 -12 15 2 20 -9 22 -24 4z"/>
<path d="M4910 3054 c-7 -8 -11 -14 -9 -15 33 -6 45 -7 56 0 11 5 8 10 -11 19
-19 9 -27 8 -36 -4z m24 -2 c3 -5 -1 -9 -9 -9 -8 0 -12 4 -9 9 3 4 7 8 9 8 2
0 6 -4 9 -8z"/>
<path d="M5111 3056 c-9 -11 -9 -16 1 -22 7 -4 10 -4 6 1 -4 4 -3 14 3 22 6 7
9 13 6 13 -2 0 -10 -6 -16 -14z"/>
<path d="M5166 3047 c3 -10 9 -15 12 -12 3 3 0 11 -7 18 -10 9 -11 8 -5 -6z"/>
<path d="M4017 3073 c-9 -9 -9 -23 1 -22 20 3 32 -2 26 -13 -5 -7 -3 -8 5 -4
9 6 8 13 -5 27 -20 22 -18 21 -27 12z"/>
<path d="M3419 3053 c-13 -16 -12 -17 4 -4 9 7 17 15 17 17 0 8 -8 3 -21 -13z"/>
<path d="M7160 3380 c-9 -6 -10 -10 -3 -10 6 0 15 5 18 10 8 12 4 12 -15 0z"/>
<path d="M7213 3367 c0 -8 6 -14 14 -14 9 0 10 4 2 14 -6 7 -12 13 -14 13 -1
0 -2 -6 -2 -13z"/>
<path d="M7120 3335 c-11 -13 -11 -18 0 -28 10 -10 12 -9 7 4 -3 9 0 22 6 28
6 6 8 11 5 11 -3 0 -11 -7 -18 -15z"/>
<path d="M7154 3322 c0 -10 8 -18 16 -18 9 0 17 6 17 13 0 7 -3 11 -5 8 -3 -3
-10 -1 -16 5 -8 6 -12 3 -12 -8z"/>
<path d="M7075 3300 c-3 -6 1 -7 9 -4 18 7 21 14 7 14 -6 0 -13 -4 -16 -10z"/>
<path d="M7095 3280 c3 -5 11 -10 16 -10 6 0 7 5 4 10 -3 6 -11 10 -16 10 -6
0 -7 -4 -4 -10z"/>
<path d="M7005 3210 c-10 -11 -13 -20 -7 -20 6 0 13 6 15 13 4 9 6 9 6 0 1 -7
-8 -17 -18 -23 -17 -9 -19 -7 -15 15 4 23 2 24 -14 14 -17 -11 -18 -14 -4 -30
11 -13 20 -15 32 -9 10 5 20 6 24 3 3 -3 6 -1 6 6 0 7 4 10 9 7 12 -8 8 21 -5
34 -7 7 -16 4 -29 -10z"/>
<path d="M8362 3160 c-9 -15 -9 -21 1 -26 6 -4 9 -4 5 1 -4 4 -3 14 4 22 6 7
9 15 7 18 -3 2 -10 -4 -17 -15z"/>
<path d="M8460 3166 c7 -7 13 -7 20 0 6 6 3 10 -10 10 -13 0 -16 -4 -10 -10z"/>
<path d="M6897 3156 c-3 -8 -3 -17 0 -20 9 -8 43 13 43 27 0 7 -4 6 -10 -3 -6
-10 -10 -11 -10 -2 0 16 -17 15 -23 -2z"/>
<path d="M8310 3160 c0 -5 7 -7 15 -4 8 4 15 8 15 10 0 2 -7 4 -15 4 -8 0 -15
-4 -15 -10z"/>
<path d="M1207 3130 c-26 -21 -42 -26 -33 -12 3 5 -1 9 -8 9 -7 0 -13 -6 -13
-13 0 -7 4 -11 8 -8 4 2 10 0 14 -6 9 -15 41 -12 55 5 7 8 17 12 22 9 6 -4 4
-10 -6 -16 -18 -10 -22 -28 -5 -28 5 0 8 4 5 9 -11 17 19 19 39 2 18 -15 19
-15 6 2 -7 9 -10 18 -5 19 5 0 14 2 19 3 6 2 15 3 22 4 6 0 11 10 10 20 -1 15
-5 17 -18 11 -10 -6 -20 -5 -28 3 -9 9 -14 9 -20 -2 -6 -9 -11 -10 -15 -2 -10
16 -20 14 -49 -9z m68 0 c3 6 11 8 16 4 6 -4 6 -11 -2 -20 -10 -13 -14 -12
-29 1 -15 14 -18 14 -30 0 -7 -8 -19 -15 -28 -15 -15 0 -14 8 1 9 4 0 15 7 23
16 12 12 20 13 29 5 9 -8 15 -8 20 0z m55 -4 c0 -3 -4 -8 -10 -11 -5 -3 -10
-1 -10 4 0 6 5 11 10 11 6 0 10 -2 10 -4z"/>
<path d="M6689 3147 c-2 -12 -6 -22 -14 -40 -6 -13 -10 -15 -21 -6 -8 6 -11
15 -8 20 3 5 0 9 -6 9 -7 0 -9 -7 -6 -16 4 -10 2 -13 -6 -8 -6 4 -8 3 -5 -3 3
-5 0 -10 -8 -10 -8 0 -12 5 -8 10 3 5 -6 2 -20 -8 -17 -10 -27 -13 -32 -6 -3
6 -5 11 -3 12 30 7 45 10 56 11 14 2 16 14 3 22 -5 3 -14 -1 -21 -10 -11 -12
-15 -12 -22 -2 -8 11 -10 11 -15 0 -4 -10 -8 -10 -21 0 -15 12 -16 11 -3 -4 7
-10 10 -18 7 -18 -4 0 -1 -6 6 -13 15 -16 48 -18 48 -4 0 6 3 7 7 3 4 -4 -3
-16 -17 -27 -18 -14 -20 -17 -6 -12 12 4 17 2 13 -3 -3 -6 5 -10 18 -10 13 0
21 4 18 9 -3 4 1 7 8 6 18 -4 59 23 59 38 0 7 6 16 14 20 13 7 13 11 0 27 -8
11 -15 17 -15 13z m-18 -64 c2 1 -3 -5 -11 -14 -8 -9 -19 -14 -23 -12 -4 3
-14 0 -22 -7 -9 -7 -15 -8 -20 0 -3 5 -1 10 4 10 6 0 11 8 11 18 0 13 2 14 9
4 6 -11 10 -10 15 3 5 13 9 15 20 6 7 -6 15 -10 17 -8z"/>
<path d="M6710 3140 c0 -5 5 -10 11 -10 5 0 7 5 4 10 -3 6 -8 10 -11 10 -2 0
-4 -4 -4 -10z"/>
<path d="M6776 3130 c-25 -16 -26 -19 -9 -17 11 0 26 9 32 19 13 21 14 21 -23
-2z"/>
<path d="M8175 3140 c-3 -5 -1 -10 4 -10 6 0 11 5 11 10 0 6 -2 10 -4 10 -3 0
-8 -4 -11 -10z"/>
<path d="M2338 3118 c7 -7 8 -16 3 -22 -6 -7 -2 -20 10 -35 10 -13 19 -18 19
-13 0 6 -5 14 -10 17 -6 4 -7 11 -4 17 4 6 12 1 20 -13 7 -13 10 -28 7 -33 -4
-5 0 -6 7 -1 9 6 12 4 8 -7 -4 -9 0 -15 8 -15 12 0 12 4 -1 23 -19 29 -19 34
1 34 9 0 12 -5 8 -12 -5 -9 -2 -8 9 1 15 12 20 11 40 -5 16 -14 19 -15 9 -2
-12 15 -11 17 7 15 16 -1 20 -6 15 -21 -5 -16 -4 -17 9 -5 8 8 13 17 11 21 -2
4 0 9 6 13 16 10 1 25 -17 18 -10 -4 -14 -2 -10 4 4 6 0 16 -8 23 -12 10 -15
10 -15 0 0 -10 -3 -10 -15 0 -12 10 -19 10 -27 2 -14 -14 -32 -16 -24 -4 7 12
-26 11 -41 -1 -9 -6 -13 -6 -13 2 0 6 -5 11 -12 11 -9 0 -9 -3 0 -12z m82 -13
c7 8 18 15 24 15 6 0 4 -5 -4 -10 -8 -5 -13 -10 -10 -11 3 0 13 -2 23 -4 9 -2
17 1 17 6 0 20 16 8 17 -13 2 -16 0 -19 -6 -9 -6 10 -10 10 -16 2 -5 -9 -10
-9 -21 0 -11 9 -14 8 -14 -2 0 -9 -3 -10 -8 -4 -11 15 -32 17 -32 3 0 -7 -5
-5 -11 5 -9 15 -13 16 -27 5 -12 -9 -11 -6 2 10 17 20 21 21 36 7 15 -14 18
-14 30 0z"/>
<path d="M7486 3122 c-2 -4 -1 -14 3 -21 6 -10 10 -9 14 3 6 16 -8 32 -17 18z"/>
<path d="M7975 3120 c-3 -6 1 -7 9 -4 18 7 21 14 7 14 -6 0 -13 -4 -16 -10z"/>
<path d="M8046 3118 c3 -5 10 -6 15 -3 13 9 11 12 -6 12 -8 0 -12 -4 -9 -9z"/>
<path d="M6443 3106 c0 -8 8 -14 18 -13 14 1 15 4 7 14 -14 17 -25 16 -25 -1z"/>
<path d="M345 3100 c-5 -8 -4 -11 1 -7 6 3 15 -3 22 -13 10 -16 9 -18 -3 -14
-8 4 -15 1 -15 -5 0 -8 -5 -9 -16 -3 -19 11 -64 -7 -64 -25 0 -9 7 -10 23 -5
12 5 32 7 45 6 12 0 22 3 22 9 0 6 3 7 7 4 3 -4 12 1 20 11 14 16 14 16 9 -1
-3 -10 -2 -15 3 -12 16 9 8 43 -9 40 -8 -1 -20 5 -26 13 -9 12 -13 12 -19 2z"/>
<path d="M3660 3093 c0 -1 8 -7 18 -12 14 -7 19 -6 19 4 0 7 -9 13 -19 12 -10
-1 -18 -2 -18 -4z"/>
<path d="M3780 3086 c0 -11 -8 -15 -30 -12 -24 3 -28 1 -20 -10 6 -7 20 -11
32 -9 14 3 22 -2 25 -15 3 -11 10 -20 16 -20 6 0 7 3 4 7 -4 3 -2 12 4 19 9
10 7 15 -5 20 -9 3 -14 10 -11 14 3 5 1 11 -5 15 -5 3 -10 -1 -10 -9z m25 -34
c-3 -3 -11 0 -18 7 -9 10 -8 11 6 5 10 -3 15 -9 12 -12z"/>
<path d="M5503 3068 c-26 -27 -28 -28 -41 -11 -13 16 -13 16 -7 -6 6 -21 5
-22 -8 -10 -8 8 -12 19 -9 24 3 6 -4 2 -15 -8 -11 -9 -23 -14 -26 -10 -4 3 -7
0 -7 -8 0 -8 -7 -4 -16 9 -9 13 -21 21 -27 19 -7 -2 -19 -1 -28 4 -10 5 -23 3
-35 -7 -18 -15 -18 -15 -1 -10 13 4 20 0 24 -14 6 -24 12 -25 41 -4 12 8 22
11 22 6 0 -14 -25 -32 -50 -37 -13 -2 -25 -7 -29 -10 -15 -15 54 6 72 22 19
17 19 17 13 -4 -4 -13 -2 -24 5 -29 7 -4 9 -3 6 4 -10 16 3 42 21 42 12 0 13
-3 4 -12 -7 -7 -12 -16 -12 -21 0 -5 9 1 19 14 l19 24 23 -20 c18 -15 20 -16
10 -2 -11 14 -11 17 2 17 17 0 30 -26 21 -43 -3 -7 1 -4 9 6 9 11 17 14 20 7
3 -6 4 -5 3 2 -2 7 -9 12 -16 10 -8 -2 -10 3 -6 13 3 9 6 19 6 21 0 2 5 4 10
4 6 0 9 -5 8 -11 -5 -21 30 -35 52 -21 25 16 43 16 34 0 -4 -7 2 -4 14 6 22
19 32 10 11 -11 -8 -8 -7 -13 2 -18 7 -5 10 -4 5 3 -3 6 2 16 13 21 27 15 44
14 35 -1 -5 -9 -2 -9 9 1 14 11 20 11 34 0 14 -12 16 -12 8 0 -6 11 -4 13 9 8
9 -4 14 -3 11 2 -3 5 -1 12 4 15 10 7 26 -30 23 -54 -1 -10 0 -11 4 -2 3 6 11
9 17 6 8 -5 8 -2 0 7 -18 18 -16 34 2 19 11 -9 15 -9 15 -1 0 7 5 9 10 6 6 -4
10 -3 9 2 -4 26 3 24 21 -4 11 -18 25 -33 32 -32 10 0 10 2 0 6 -6 2 -9 10 -6
15 4 7 2 8 -4 4 -17 -10 -15 6 5 33 9 14 11 21 5 17 -6 -3 -14 -2 -17 4 -5 8
-11 8 -20 0 -10 -8 -15 -8 -20 0 -5 8 -10 8 -20 0 -10 -8 -15 -8 -20 0 -5 8
-11 7 -22 -2 -22 -18 -49 -19 -63 -3 -11 13 -10 14 4 9 9 -3 16 -1 16 5 0 16
-21 13 -42 -6 -17 -15 -19 -15 -36 0 -23 21 -38 21 -46 1 -3 -8 -10 -13 -15
-10 -5 4 -11 1 -13 -5 -2 -6 -15 1 -30 14 l-27 25 -28 -30z m112 -8 c28 18 51
18 40 -1 -8 -12 28 -12 41 0 5 5 16 2 26 -8 16 -16 16 -17 -2 -17 -10 0 -16 4
-14 8 7 11 -4 10 -26 -2 -13 -7 -21 -7 -25 0 -5 8 -12 7 -23 -2 -12 -10 -14
-10 -8 0 10 16 1 15 -34 -3 -28 -15 -65 -11 -55 5 11 18 -19 22 -32 5 -7 -11
-13 -14 -13 -7 0 6 10 18 22 26 19 14 24 13 48 -4 26 -18 27 -18 55 0z m-286
-24 c-3 -3 -11 5 -18 17 -13 21 -12 21 5 5 10 -10 16 -20 13 -22z m497 25 c7
6 14 6 18 1 3 -6 -1 -16 -10 -23 -13 -10 -17 -10 -25 2 -7 12 -9 12 -9 -1 0
-13 -2 -13 -9 0 -12 18 -2 35 12 21 7 -7 14 -7 23 0z m57 -17 c-4 -12 -8 -13
-14 -3 -9 15 -2 32 11 24 5 -3 6 -13 3 -21z"/>
<path d="M5540 3054 c8 -10 15 -20 16 -22 1 -2 4 1 7 5 3 5 -4 15 -16 23 -21
12 -21 12 -7 -6z"/>
<path d="M6181 3091 c-8 -5 -9 -11 -3 -15 5 -3 12 1 16 9 6 17 6 18 -13 6z"/>
<path d="M6284 3088 c-5 -7 -3 -8 6 -3 7 4 16 2 21 -6 4 -7 11 -10 16 -6 4 5
1 12 -7 17 -20 13 -27 12 -36 -2z"/>
<path d="M7121 3095 c0 -5 4 -17 9 -25 8 -12 10 -12 10 -1 0 11 6 9 23 -5 l22
-19 -19 22 c-10 13 -22 20 -26 18 -5 -3 -11 1 -13 7 -3 7 -6 9 -6 3z"/>
<path d="M310 3086 c0 -2 7 -7 16 -10 8 -3 12 -2 9 4 -6 10 -25 14 -25 6z"/>
<path d="M3216 3082 c-3 -5 1 -9 9 -9 8 0 12 4 9 9 -3 4 -7 8 -9 8 -2 0 -6 -4
-9 -8z"/>
<path d="M3340 3086 c0 -2 8 -10 18 -17 15 -13 16 -12 3 4 -13 16 -21 21 -21
13z"/>
<path d="M3603 3074 c18 -21 51 -29 44 -10 -3 6 -10 10 -17 8 -7 -1 -20 3 -29
10 -13 10 -13 9 2 -8z"/>
<path d="M7080 3081 c0 -5 7 -12 16 -15 14 -5 15 -4 4 9 -14 17 -20 19 -20 6z"/>
<path d="M7390 3077 c0 -5 7 -6 16 -3 9 4 24 1 33 -6 14 -11 14 -11 3 4 -14
17 -52 21 -52 5z"/>
<path d="M7456 3078 c3 -5 10 -6 15 -3 13 9 11 12 -6 12 -8 0 -12 -4 -9 -9z"/>
<path d="M3843 3073 c-7 -2 -13 -9 -13 -14 0 -11 23 -7 32 6 5 6 8 5 8 -3 0
-7 5 -10 11 -6 8 4 7 9 -2 15 -15 10 -18 10 -36 2z"/>
<path d="M4644 3065 c-18 -14 -18 -14 2 -11 23 5 47 -6 44 -20 -2 -14 -29 -26
-43 -19 -6 4 -3 -1 7 -9 11 -9 25 -16 30 -16 6 0 4 5 -4 11 -12 9 -11 10 5 6
15 -3 21 1 21 14 0 10 -5 15 -10 12 -5 -3 -6 -1 -2 6 4 6 12 9 17 5 5 -3 7 -9
5 -13 -3 -4 -1 -13 5 -21 5 -8 9 -10 10 -5 0 6 2 20 3 32 1 12 -1 20 -5 17 -5
-3 -21 2 -37 10 -25 13 -32 13 -48 1z"/>
<path d="M6885 3069 c-4 -6 -5 -12 -2 -15 2 -3 7 2 10 11 7 17 1 20 -8 4z"/>
<path d="M7195 3071 c-3 -5 -2 -12 3 -15 5 -3 9 1 9 9 0 17 -3 19 -12 6z"/>
<path d="M6906 3062 c-3 -5 1 -9 9 -9 8 0 12 4 9 9 -3 4 -7 8 -9 8 -2 0 -6 -4
-9 -8z"/>
<path d="M6952 3061 c-11 -7 -11 -9 0 -14 9 -3 15 1 15 9 0 8 -1 14 -1 14 -1
0 -7 -4 -14 -9z"/>
<path d="M707 3045 c-7 -16 4 -29 28 -33 18 -2 18 -1 -3 11 -12 7 -20 16 -16
20 4 4 13 2 19 -3 9 -7 14 -7 18 2 3 8 -4 14 -19 14 -12 1 -25 -4 -27 -11z"/>
<path d="M833 3040 c-1 -11 2 -20 7 -20 4 0 7 7 6 15 -3 23 -12 26 -13 5z"/>
<path d="M6693 3034 c0 -17 2 -22 7 -13 5 6 6 18 3 26 -8 19 -10 16 -10 -13z"/>
<path d="M656 3035 c4 -8 8 -15 10 -15 2 0 4 7 4 15 0 8 -4 15 -10 15 -5 0 -7
-7 -4 -15z"/>
<path d="M2425 3040 c-3 -6 1 -7 9 -4 18 7 21 14 7 14 -6 0 -13 -4 -16 -10z"/>
<path d="M6380 3038 c0 -11 12 -10 30 2 12 7 10 9 -8 7 -12 0 -22 -5 -22 -9z"/>
<path d="M6430 3035 c0 -8 2 -15 4 -15 2 0 6 7 10 15 3 8 1 15 -4 15 -6 0 -10
-7 -10 -15z"/>
<path d="M6671 3034 c0 -11 3 -14 6 -6 3 7 2 16 -1 19 -3 4 -6 -2 -5 -13z"/>
<path d="M10 3031 c0 -10 39 -11 45 -2 2 5 -7 9 -20 9 -14 0 -25 -3 -25 -7z"/>
<path d="M630 3019 c0 -5 5 -7 10 -4 6 3 10 8 10 11 0 2 -4 4 -10 4 -5 0 -10
-5 -10 -11z"/>
<path d="M2830 3025 c0 -5 5 -17 10 -25 5 -8 10 -10 10 -5 0 6 -5 17 -10 25
-5 8 -10 11 -10 5z"/>
<path d="M3710 3022 c0 -5 10 -17 22 -28 l21 -19 -18 28 c-18 28 -25 33 -25
19z"/>
<path d="M6257 3009 c4 -13 8 -18 11 -10 2 7 -1 18 -6 23 -8 8 -9 4 -5 -13z"/>
<path d="M6553 3015 c0 -8 4 -12 9 -9 4 3 8 9 8 15 0 5 -4 9 -8 9 -5 0 -9 -7
-9 -15z"/>
<path d="M6636 3022 c-3 -5 1 -9 9 -9 8 0 12 4 9 9 -3 4 -7 8 -9 8 -2 0 -6 -4
-9 -8z"/>
<path d="M434 3006 c1 -8 5 -18 8 -22 4 -3 5 1 4 10 -1 8 -5 18 -8 22 -4 3 -5
-1 -4 -10z"/>
<path d="M2477 3013 c-10 -9 -9 -23 1 -23 5 0 9 7 9 15 0 17 -1 18 -10 8z"/>
<path d="M2633 3000 c1 -21 10 -18 13 5 1 8 -2 15 -6 15 -5 0 -8 -9 -7 -20z"/>
<path d="M2668 3013 c7 -3 16 -2 19 1 4 3 -2 6 -13 5 -11 0 -14 -3 -6 -6z"/>
<path d="M2777 3005 c3 -8 9 -12 14 -9 12 7 11 11 -5 17 -10 4 -13 1 -9 -8z"/>
<path d="M2881 3013 c-1 -17 16 -25 25 -12 4 7 3 9 -4 5 -5 -3 -13 0 -15 6 -4
9 -6 10 -6 1z"/>
<path d="M3160 3011 c0 -6 4 -13 10 -16 6 -3 7 1 4 9 -7 18 -14 21 -14 7z"/>
<path d="M3275 3010 c-3 -5 -1 -10 4 -10 6 0 11 5 11 10 0 6 -2 10 -4 10 -3 0
-8 -4 -11 -10z"/>
<path d="M3991 3010 c-10 -5 -9 -8 2 -13 7 -3 19 -2 26 3 10 5 9 8 -2 13 -7 3
-19 2 -26 -3z"/>
<path d="M6093 3001 c0 -11 5 -18 9 -15 4 3 5 11 1 19 -7 21 -12 19 -10 -4z"/>
<path d="M6477 3013 c-10 -9 -9 -23 1 -23 5 0 9 7 9 15 0 17 -1 18 -10 8z"/>
<path d="M470 3001 c0 -6 4 -13 10 -16 6 -3 7 1 4 9 -7 18 -14 21 -14 7z"/>
<path d="M666 2998 c3 -5 10 -6 15 -3 13 9 11 12 -6 12 -8 0 -12 -4 -9 -9z"/>
<path d="M1360 3000 c-12 -7 -10 -9 7 -7 12 0 19 5 17 9 -6 10 -6 10 -24 -2z"/>
<path d="M2574 3002 c4 -3 14 -7 22 -8 9 -1 13 0 10 4 -4 3 -14 7 -22 8 -9 1
-13 0 -10 -4z"/>
<path d="M2980 2999 c0 -5 5 -7 10 -4 6 3 10 8 10 11 0 2 -4 4 -10 4 -5 0 -10
-5 -10 -11z"/>
<path d="M3110 2998 c0 -6 3 -8 7 -5 3 4 13 1 22 -6 14 -11 14 -10 2 6 -15 20
-31 22 -31 5z"/>
<path d="M3490 3006 c0 -2 7 -7 16 -10 8 -3 12 -2 9 4 -6 10 -25 14 -25 6z"/>
<path d="M3640 3001 c0 -5 7 -11 14 -14 10 -4 13 -1 9 9 -6 15 -23 19 -23 5z"/>
<path d="M5427 3004 c-4 -4 -7 -12 -7 -18 0 -6 5 -4 10 4 9 13 11 13 21 0 9
-12 10 -12 7 -1 -5 17 -21 25 -31 15z"/>
<path d="M5660 2995 c0 -8 2 -15 4 -15 2 0 6 7 10 15 3 8 1 15 -4 15 -6 0 -10
-7 -10 -15z"/>
<path d="M5699 2993 c-10 -12 -11 -15 -1 -9 7 4 20 2 30 -6 15 -11 15 -11 5 3
-7 9 -10 19 -6 22 3 4 2 7 -4 7 -6 0 -17 -8 -24 -17z"/>
<path d="M5755 2999 c-11 -16 -1 -19 13 -3 7 8 8 14 3 14 -5 0 -13 -5 -16 -11z"/>
<path d="M5837 2995 c-4 -8 -1 -17 6 -21 7 -4 9 -4 5 1 -4 4 -3 14 3 22 7 8 8
13 1 13 -5 0 -12 -7 -15 -15z"/>
<path d="M5926 3002 c-3 -5 1 -9 9 -9 8 0 15 4 15 9 0 4 -4 8 -9 8 -6 0 -12
-4 -15 -8z"/>
<path d="M6050 3001 c0 -6 4 -13 10 -16 6 -3 7 1 4 9 -7 18 -14 21 -14 7z"/>
<path d="M6235 3001 c-3 -5 -2 -12 3 -15 5 -3 9 1 9 9 0 17 -3 19 -12 6z"/>
<path d="M6395 3000 c-3 -5 -1 -10 4 -10 6 0 11 5 11 10 0 6 -2 10 -4 10 -3 0
-8 -4 -11 -10z"/>
<path d="M2815 2991 c-3 -5 -2 -12 3 -15 5 -3 9 1 9 9 0 17 -3 19 -12 6z"/>
<path d="M4466 2983 c-6 -14 -5 -15 5 -6 7 7 10 15 7 18 -3 3 -9 -2 -12 -12z"/>
<path d="M4627 2987 c-3 -7 5 -12 19 -12 29 0 29 1 5 14 -14 8 -20 7 -24 -2z"/>
<path d="M5080 2991 c0 -6 4 -13 10 -16 6 -3 7 1 4 9 -7 18 -14 21 -14 7z"/>
<path d="M5117 2987 c-3 -8 1 -14 8 -14 7 0 11 6 8 14 -3 7 -6 13 -8 13 -2 0
-5 -6 -8 -13z"/>
<path d="M2416 2981 c-3 -5 2 -15 12 -22 15 -12 16 -12 5 2 -7 9 -10 19 -6 22
3 4 4 7 0 7 -3 0 -8 -4 -11 -9z"/>
<path d="M3266 2978 c3 -5 10 -6 15 -3 13 9 11 12 -6 12 -8 0 -12 -4 -9 -9z"/>
<path d="M3380 2980 c-9 -6 -10 -10 -3 -10 6 0 15 5 18 10 8 12 4 12 -15 0z"/>
<path d="M3473 2967 c-1 -11 -1 -18 0 -16 2 2 8 11 15 20 9 12 9 16 -1 16 -7
0 -14 -9 -14 -20z"/>
<path d="M3761 2976 c-8 -10 -9 -16 -1 -21 6 -4 9 -1 8 7 -2 7 3 12 10 10 8
-1 11 2 7 8 -8 13 -10 13 -24 -4z"/>
<path d="M3910 2981 c0 -6 4 -12 8 -15 5 -3 9 1 9 9 0 8 -4 15 -9 15 -4 0 -8
-4 -8 -9z"/>
<path d="M4130 2980 c0 -5 5 -10 11 -10 5 0 7 5 4 10 -3 6 -8 10 -11 10 -2 0
-4 -4 -4 -10z"/>
<path d="M4194 2976 c1 -8 5 -18 8 -22 4 -3 5 1 4 10 -1 8 -5 18 -8 22 -4 3
-5 -1 -4 -10z"/>
<path d="M4270 2983 c5 -2 8 -9 5 -13 -3 -5 -1 -11 4 -14 5 -4 8 2 7 11 -2 9
-8 18 -15 19 -6 1 -7 0 -1 -3z"/>
<path d="M4432 2980 c2 -9 -3 -14 -12 -12 -8 2 -11 0 -7 -4 13 -14 35 -12 33
2 -1 7 -6 17 -10 21 -4 4 -6 1 -4 -7z"/>
<path d="M4550 2981 c0 -6 4 -13 10 -16 6 -3 7 1 4 9 -7 18 -14 21 -14 7z"/>
<path d="M4590 2985 c0 -5 5 -17 10 -25 5 -8 10 -10 10 -5 0 6 -5 17 -10 25
-5 8 -10 11 -10 5z"/>
<path d="M4695 2980 c-3 -6 1 -7 9 -4 18 7 21 14 7 14 -6 0 -13 -4 -16 -10z"/>
<path d="M5170 2980 c0 -5 5 -10 11 -10 5 0 7 5 4 10 -3 6 -8 10 -11 10 -2 0
-4 -4 -4 -10z"/>
<path d="M5587 2979 c7 -7 15 -10 18 -7 3 3 -2 9 -12 12 -14 6 -15 5 -6 -5z"/>
<path d="M6290 2979 c0 -5 5 -7 10 -4 6 3 10 8 10 11 0 2 -4 4 -10 4 -5 0 -10
-5 -10 -11z"/>
<path d="M6510 2986 c0 -2 7 -7 16 -10 8 -3 12 -2 9 4 -6 10 -25 14 -25 6z"/>
<path d="M6570 2986 c0 -2 7 -7 16 -10 8 -3 12 -2 9 4 -6 10 -25 14 -25 6z"/>
<path d="M3176 2967 c3 -10 9 -15 12 -12 3 3 0 11 -7 18 -10 9 -11 8 -5 -6z"/>
<path d="M4313 2965 c0 -8 4 -12 9 -9 5 3 6 10 3 15 -9 13 -12 11 -12 -6z"/>
<path d="M4755 2969 c-4 -6 -5 -12 -2 -15 2 -3 7 2 10 11 7 17 1 20 -8 4z"/>
<path d="M4836 2967 c3 -10 9 -15 12 -12 3 3 0 11 -7 18 -10 9 -11 8 -5 -6z"/>
<path d="M5310 2976 c0 -2 8 -10 18 -17 15 -13 16 -12 3 4 -13 16 -21 21 -21
13z"/>
<path d="M5913 2965 c0 -8 4 -12 9 -9 5 3 6 10 3 15 -9 13 -12 11 -12 -6z"/>
<path d="M5973 2965 c0 -8 4 -12 9 -9 5 3 6 10 3 15 -9 13 -12 11 -12 -6z"/>
<path d="M3136 2962 c-3 -5 1 -9 9 -9 8 0 12 4 9 9 -3 4 -7 8 -9 8 -2 0 -6 -4
-9 -8z"/>
<path d="M3235 2961 c-3 -5 -2 -12 3 -15 5 -3 9 1 9 9 0 17 -3 19 -12 6z"/>
<path d="M3433 2955 c0 -8 4 -12 9 -9 5 3 6 10 3 15 -9 13 -12 11 -12 -6z"/>
<path d="M4010 2959 c0 -5 5 -7 10 -4 6 3 10 8 10 11 0 2 -4 4 -10 4 -5 0 -10
-5 -10 -11z"/>
<path d="M4716 2958 c3 -5 10 -6 15 -3 13 9 11 12 -6 12 -8 0 -12 -4 -9 -9z"/>
<path d="M5430 2956 c7 -7 13 -7 20 0 6 6 3 10 -10 10 -13 0 -16 -4 -10 -10z"/>
<path d="M5631 2953 c7 -12 15 -20 18 -17 3 2 -3 12 -13 22 -17 16 -18 16 -5
-5z"/>
<path d="M6390 2960 c0 -5 5 -10 11 -10 5 0 7 5 4 10 -3 6 -8 10 -11 10 -2 0
-4 -4 -4 -10z"/>
<path d="M6475 2960 c-3 -5 -1 -10 4 -10 6 0 11 5 11 10 0 6 -2 10 -4 10 -3 0
-8 -4 -11 -10z"/>
<path d="M3615 2940 c-3 -5 -1 -10 4 -10 6 0 11 5 11 10 0 6 -2 10 -4 10 -3 0
-8 -4 -11 -10z"/>
<path d="M3885 2940 c-3 -6 1 -7 9 -4 18 7 21 14 7 14 -6 0 -13 -4 -16 -10z"/>
<path d="M3930 2946 c0 -2 7 -7 16 -10 8 -3 12 -2 9 4 -6 10 -25 14 -25 6z"/>
<path d="M4370 2939 c0 -5 5 -7 10 -4 6 3 10 8 10 11 0 2 -4 4 -10 4 -5 0 -10
-5 -10 -11z"/>
<path d="M4530 2939 c0 -5 5 -7 10 -4 6 3 10 8 10 11 0 2 -4 4 -10 4 -5 0 -10
-5 -10 -11z"/>
<path d="M4996 2942 c-3 -5 1 -9 9 -9 8 0 12 4 9 9 -3 4 -7 8 -9 8 -2 0 -6 -4
-9 -8z"/>
<path d="M5156 2942 c-3 -5 1 -9 9 -9 8 0 12 4 9 9 -3 4 -7 8 -9 8 -2 0 -6 -4
-9 -8z"/>
<path d="M5285 2940 c-3 -6 1 -7 9 -4 18 7 21 14 7 14 -6 0 -13 -4 -16 -10z"/>
<path d="M5495 2941 c-3 -5 -2 -12 3 -15 5 -3 9 1 9 9 0 17 -3 19 -12 6z"/>
<path d="M3666 2918 c3 -5 10 -6 15 -3 13 9 11 12 -6 12 -8 0 -12 -4 -9 -9z"/>
<path d="M3807 2919 c7 -7 15 -10 18 -7 3 3 -2 9 -12 12 -14 6 -15 5 -6 -5z"/>
<path d="M1496 2877 c2 -11 9 -24 15 -27 6 -4 10 -10 10 -14 -1 -3 1 -6 4 -6
3 0 9 0 15 0 11 0 9 28 -3 46 -4 7 -15 14 -26 17 -15 4 -19 0 -15 -16z m40
-19 c1 -10 -3 -21 -9 -25 -7 -3 -9 -2 -4 2 4 5 -1 17 -10 28 -17 18 -17 19 1
16 11 -2 20 -12 22 -21z"/>
<path d="M2224 2829 c0 -13 3 -15 13 -7 7 6 13 12 13 13 0 2 -6 5 -13 8 -7 3
-13 -3 -13 -14z"/>
<path d="M1490 2820 c0 -5 5 -10 11 -10 5 0 7 5 4 10 -3 6 -8 10 -11 10 -2 0
-4 -4 -4 -10z"/>
<path d="M2165 2785 c-16 -13 -26 -27 -22 -31 4 -4 7 -2 7 4 0 7 5 12 11 12 5
0 8 -4 5 -9 -3 -5 1 -12 9 -15 12 -4 13 -2 6 13 -14 25 -1 35 16 13 8 -9 12
-12 9 -5 -4 6 0 14 6 16 7 3 4 6 -7 6 -17 1 -17 3 -5 11 8 5 11 10 5 9 -5 0
-23 -11 -40 -24z"/>
<path d="M1530 2776 c0 -2 8 -10 18 -17 15 -13 16 -12 3 4 -13 16 -21 21 -21
13z"/>
<path d="M2101 2765 c-1 -14 12 -30 25 -32 7 -1 10 6 7 18 -4 14 -8 17 -13 9
-6 -9 -9 -9 -13 1 -3 8 -6 10 -6 4z"/>
<path d="M2217 2755 c-4 -8 -3 -16 1 -19 4 -3 9 4 9 15 2 23 -3 25 -10 4z"/>
<path d="M1792 2738 c-7 -7 -12 -17 -12 -22 0 -6 5 -3 11 6 5 10 16 15 25 11
12 -4 12 -8 2 -22 -12 -14 -11 -14 4 -3 19 15 42 7 32 -10 -5 -7 -2 -8 5 -3 9
5 10 10 2 18 -16 16 -14 32 2 18 10 -8 14 -7 14 3 0 14 -21 16 -33 3 -4 -3
-14 -2 -24 3 -11 6 -21 5 -28 -2z"/>
<path d="M1691 2727 c-8 -10 -7 -14 2 -14 8 0 14 6 14 14 0 7 -1 13 -2 13 -2
0 -8 -6 -14 -13z"/>
<path d="M1970 2731 c0 -7 -5 -9 -12 -5 -7 5 -8 3 -3 -5 5 -9 10 -10 18 -2 6
6 8 14 4 18 -4 3 -7 1 -7 -6z"/>
<path d="M2000 2733 c8 -3 19 -11 23 -17 6 -7 7 -6 4 4 -2 8 -12 16 -23 17
-13 2 -15 1 -4 -4z"/>
<path d="M2080 2720 c-6 -11 -8 -20 -6 -20 3 0 10 9 16 20 6 11 8 20 6 20 -3
0 -10 -9 -16 -20z"/>
<path d="M1886 2682 c-3 -5 1 -9 9 -9 8 0 12 4 9 9 -3 4 -7 8 -9 8 -2 0 -6 -4
-9 -8z"/>
</g>
</svg>
